<svg width="76" height="19" viewBox="0 0 76 19" fill="none" xmlns="http://www.w3.org/2000/svg">
<path fill-rule="evenodd" clip-rule="evenodd" d="M22.2864 4.49907L18.765 6.87423C18.6745 6.93547 18.62 7.03782 18.62 7.14729V11.4602C18.62 11.642 18.7676 11.7895 18.9493 11.7895C19.0149 11.7895 19.0792 11.7699 19.1336 11.7331L22.655 9.35801C22.7455 9.29673 22.8 9.19445 22.8 9.08494V4.77214C22.8 4.59021 22.6528 4.4428 22.4707 4.4428C22.4051 4.4428 22.3408 4.46244 22.2864 4.49907ZM12.0333 3.47342V18.6707C12.0333 18.8524 12.1807 19 12.3626 19C12.4283 19 12.4924 18.9804 12.5468 18.9436L17.2083 15.7996C17.2989 15.7384 17.3533 15.6361 17.3533 15.5266V0.329334C17.3533 0.14744 17.2058 0 17.024 0C16.9585 0 16.8942 0.0196338 16.8397 0.0563671L12.1785 3.20046C12.0877 3.26167 12.0333 3.36398 12.0333 3.47342ZM5.44667 3.47342V18.6707C5.44667 18.8524 5.59407 19 5.77597 19C5.84161 19 5.90577 18.9804 5.96017 18.9436L10.6215 15.7996C10.7123 15.7384 10.7667 15.6361 10.7667 15.5266V0.329334C10.7667 0.14744 10.6192 0 10.4373 0C10.3717 0 10.3076 0.0196338 10.2532 0.0563671L5.59183 3.20046C5.50107 3.26167 5.44667 3.36398 5.44667 3.47342ZM3.66652 4.49907L0.14516 6.87423C0.0544352 6.93547 0 7.03782 0 7.14729V11.4602C0 11.642 0.147409 11.7895 0.329302 11.7895C0.394947 11.7895 0.459104 11.7699 0.513507 11.7331L4.03484 9.35801C4.1256 9.29673 4.18 9.19445 4.18 9.08494V4.77214C4.18 4.59021 4.03256 4.4428 3.85067 4.4428C3.78505 4.4428 3.72096 4.46244 3.66652 4.49907ZM35.2428 13.5664L36.0443 12.7647V9.5L35.2428 8.68674H30.3747V7.06021H34.4293V7.87351H36.0443V6.25857L35.2428 5.43365H29.5498L28.7483 6.25857V9.74399L29.5498 10.3249H34.4293V11.9398H30.3747V11.1382H28.7483V12.7647L29.5498 13.5664H35.2428ZM39.5925 9.51165V7.06021H43.6474V9.51165H39.5925ZM39.5925 13.5664V11.1382H44.4606L45.2624 10.3249V6.25857L44.4606 5.43365H37.9661V13.5664H39.5925ZM48.6945 9.51165V7.06021H52.7491V9.51165H48.6945ZM54.3641 13.5664V11.9398L53.5626 11.1382L54.3641 10.3249V6.25857L53.5626 5.43365H47.0681V13.5664H48.6945V11.1382H51.1227L51.9359 11.9398L52.7491 12.7647V13.5663L54.3641 13.5664ZM57.9126 13.5664V5.43365H56.2859V13.5664H57.9126ZM67.1305 13.5664V5.43365H65.5155V10.8477L61.4609 5.43365H59.8345V13.5664H61.4609V8.14071L65.5155 13.5664H67.1305ZM73.1769 13.5664V7.06021H76V5.43365H68.7037V7.06021H71.5502V13.5664H73.1769Z" fill="#B4C8FF"/>
</svg>
