<svg width="202" height="89" viewBox="0 0 202 89" fill="none" xmlns="http://www.w3.org/2000/svg">
<path d="M29.3424 44.0321C32.076 38.6918 7.7619 30.1661 7.7619 30.1661C7.7619 30.1661 35.8166 33.5389 44.3049 30.7282C52.7933 27.9176 40.7082 12.5525 40.7082 12.5525C40.7082 12.5525 65.5977 22.0151 72.7912 20.8909C79.9847 19.7666 90.775 6.18164 90.775 6.18164C90.775 6.18164 98.8317 23.2331 113.938 20.8909C129.044 18.5486 140.266 7.58698 140.266 7.58698C140.266 7.58698 139.691 23.6079 146.453 24.9195C153.215 26.2312 179.687 23.7015 179.687 23.7015C179.687 23.7015 163.573 30.1661 168.897 38.9729C174.22 47.7797 201.699 47.3112 201.699 47.3112C201.699 47.3112 167.602 49.6535 164.005 51.9957C160.408 54.3379 168.897 66.6112 168.897 66.6112C168.897 66.6112 144.007 60.3341 137.964 62.77C131.922 65.2059 137.964 80.2899 137.964 80.2899C137.964 80.2899 122.95 66.5661 109.478 68.7661C98.9376 70.4875 89.4802 81.5079 89.4802 81.5079C89.4802 81.5079 84.6723 69.3331 74.9493 66.6112C63.2272 63.3298 44.1611 73.7316 44.1611 73.7316C44.1611 73.7316 46.8946 63.6132 44.1611 59.3035C41.4275 54.9938 1 56.8676 1 56.8676C1 56.8676 26.6089 49.3724 29.3424 44.0321Z" fill="#E4E67F" stroke="black" stroke-width="2"/>
<path d="M22.9074 62.6841C24.3729 55.8167 25.2424 48.1534 25.516 39.6944L31.5334 37.8538L34.5141 49.5481L35.0709 37.9954L40.8687 36.9549C42.4925 44.3162 44.9906 52.0262 48.3631 60.0846L41.9853 62.0341L38.4687 50.1688L38.0992 61.7406L32.7757 62.6983L30.0918 50.2336L29.3528 63.3618L22.9074 62.6841ZM57.0375 41.4443C55.851 41.707 54.7124 41.9526 53.6216 42.1813C53.6212 42.9479 53.6253 43.5039 53.6338 43.8493L53.6793 45.4771L56.3968 44.8074L59.067 44.0309L59.5437 46.2849L60.0974 48.5685C58.3126 49.0371 57.1542 49.3341 56.6222 49.4595C55.6832 49.723 54.852 49.9514 54.1287 50.1447L54.3489 53.2023L58.0115 52.3303L61.6372 51.4619L62.3317 54.4367L62.9894 57.4151C61.0901 57.7216 58.9697 58.1731 56.6284 58.7695C54.2673 59.4172 51.6706 60.1865 48.8384 61.0775C48.6865 59.7567 48.4756 57.8234 48.2057 55.2776L47.5625 49.3674C47.018 44.2267 46.6061 40.3344 46.3268 37.6905L52.8313 36.2853L59.3725 34.8764L60.0635 37.8145L60.758 40.7893C59.4443 41.0148 58.2041 41.2331 57.0375 41.4443ZM68.9978 34.3206C68.972 38.6754 69.071 42.4 69.2948 45.4943L72.476 44.6316L71.4894 35.1564L78.7007 33.3863C78.716 42.5346 79.3098 50.2424 80.4821 56.5097L73.8681 58.7045L72.9537 49.5933C72.2328 49.8111 71.1503 50.1255 69.7061 50.5366C70.0415 53.2492 70.3992 55.5517 70.7792 57.444L64.2388 59.6317L61.8234 36.0871L68.9978 34.3206ZM90.7487 38.1983C89.5623 38.4609 88.4237 38.7066 87.3329 38.9353C87.3325 39.7019 87.3366 40.2579 87.3451 40.6033L87.3906 42.231L90.1081 41.5613L92.7783 40.7849L93.255 43.0388L93.8087 45.3224C92.0239 45.791 90.8655 46.0881 90.3335 46.2135C89.3944 46.477 88.5633 46.7054 87.84 46.8987L88.0602 49.9563L91.7227 49.0843L95.3485 48.2159L96.043 51.1907L96.7007 54.1691C94.8013 54.4756 92.681 54.927 90.3397 55.5234C87.9786 56.1712 85.3819 56.9405 82.5497 57.8315C82.3978 56.5107 82.1869 54.5774 81.917 52.0316L81.2737 46.1214C80.7293 40.9807 80.3174 37.0884 80.0381 34.4445L86.5426 33.0392L93.0838 31.6304L93.7748 34.5685L94.4692 37.5433C93.1556 37.7687 91.9154 37.9871 90.7487 38.1983ZM108.717 49.9333C108.138 48.0354 107.294 44.7906 106.184 40.1989C105.913 44.058 105.707 47.441 105.566 50.3479L108.717 49.9333ZM117.595 49.3009L117.593 51.9719L117.587 54.6061C114.24 54.78 110.917 55.0629 107.616 55.4549C104.313 55.8224 101.013 56.3504 97.7162 57.0388L96.5924 51.9168L98.9531 51.3927C100.12 45.7905 100.947 39.3554 101.434 32.0876L110.472 30.0303C111.548 36.5789 113.144 43.0032 115.259 49.3033L117.595 49.3009ZM133.1 28.9272C133.085 30.3135 133.128 32.1764 133.23 34.5159C133.547 34.2133 134.007 33.6002 134.611 32.6766C135.156 31.6597 135.551 31.0157 135.797 30.7448C135.079 31.5063 135.827 30.6677 138.04 28.229L143.918 30.3337L137.913 37.7001L146.353 48.6833L140.027 52.3341L133.693 42.4094L134.076 49.0864C134.138 50.2428 134.279 51.3173 134.498 52.3101L128.232 53.8779L127.44 43.3453L122.982 53.6786L116.227 51.3244L122.89 38.8499L115.77 32.7102L121.182 29.5925C121.686 29.9397 122.612 30.8273 123.961 32.2554C125.169 33.4992 126.141 34.3453 126.876 34.7938L126.331 27.205L133.1 28.9272ZM154.718 32.0387C153.532 32.3013 152.393 32.547 151.303 32.7757C151.302 33.5423 151.306 34.0983 151.315 34.4437L151.36 36.0715L154.078 35.4018L156.748 34.6253L157.225 36.8793L157.778 39.1628C155.994 39.6315 154.835 39.9285 154.303 40.0539C153.364 40.3174 152.533 40.5458 151.81 40.7391L152.03 43.7967L155.693 42.9247L159.318 42.0563L160.013 45.0311L160.67 48.0095C158.771 48.316 156.651 48.7675 154.309 49.3638C151.948 50.0116 149.352 50.7809 146.519 51.6719C146.368 50.3511 146.157 48.4178 145.887 45.872L145.244 39.9618C144.699 34.8211 144.287 30.9288 144.008 28.2849L150.512 26.8796L157.054 25.4708L157.745 28.4089L158.439 31.3837C157.125 31.6091 155.885 31.8275 154.718 32.0387ZM161.048 38.4771C160.5 31.7541 159.979 27.761 159.487 26.4977C163.293 25.1915 166.379 24.4987 168.745 24.4192C171.112 24.3397 172.926 24.8204 174.189 25.8611C175.603 26.9366 176.436 28.6493 176.687 30.9992C176.888 32.8345 176.632 34.5407 175.918 36.1179C175.252 37.4185 174.274 38.5636 172.985 39.5533C171.494 40.7603 169.65 41.6426 167.453 42.2003C167.506 43.7779 167.809 46.0238 168.361 48.9381L161.92 50.2261C161.835 48.0581 161.544 44.1418 161.048 38.4771ZM166.71 36.411C168.153 36.2473 169.287 35.6931 170.111 34.7482C170.738 34.0696 171.065 33.2221 171.09 32.2057C171.188 30.9104 170.666 30.1075 169.523 29.7971C168.632 29.5367 167.451 29.7246 165.979 30.3609L166.71 36.411Z" fill="black"/>
<path d="M20.9074 61.6841C22.3729 54.8167 23.2424 47.1534 23.516 38.6944L29.5334 36.8538L32.5141 48.5481L33.0709 36.9954L38.8687 35.9549C40.4925 43.3162 42.9906 51.0262 46.3631 59.0846L39.9853 61.0341L36.4687 49.1688L36.0992 60.7406L30.7757 61.6983L28.0918 49.2336L27.3528 62.3618L20.9074 61.6841ZM55.0375 40.4443C53.851 40.707 52.7124 40.9526 51.6216 41.1813C51.6212 41.9479 51.6253 42.5039 51.6338 42.8493L51.6793 44.4771L54.3968 43.8074L57.067 43.0309L57.5437 45.2849L58.0974 47.5685C56.3126 48.0371 55.1542 48.3341 54.6222 48.4595C53.6832 48.723 52.852 48.9514 52.1287 49.1447L52.3489 52.2023L56.0115 51.3303L59.6372 50.4619L60.3317 53.4367L60.9894 56.4151C59.0901 56.7216 56.9697 57.1731 54.6284 57.7695C52.2673 58.4172 49.6706 59.1865 46.8384 60.0775C46.6865 58.7567 46.4756 56.8234 46.2057 54.2776L45.5625 48.3674C45.018 43.2267 44.6061 39.3344 44.3268 36.6905L50.8313 35.2853L57.3725 33.8764L58.0635 36.8145L58.758 39.7893C57.4443 40.0148 56.2041 40.2331 55.0375 40.4443ZM66.9978 33.3206C66.972 37.6754 67.071 41.4 67.2948 44.4943L70.476 43.6316L69.4894 34.1564L76.7007 32.3863C76.716 41.5346 77.3098 49.2424 78.4821 55.5097L71.8681 57.7045L70.9537 48.5933C70.2328 48.8111 69.1503 49.1255 67.7061 49.5366C68.0415 52.2492 68.3992 54.5517 68.7792 56.444L62.2388 58.6317L59.8234 35.0871L66.9978 33.3206ZM88.7487 37.1983C87.5623 37.4609 86.4237 37.7066 85.3329 37.9353C85.3325 38.7019 85.3366 39.2579 85.3451 39.6033L85.3906 41.231L88.1081 40.5613L90.7783 39.7849L91.255 42.0388L91.8087 44.3224C90.0239 44.791 88.8655 45.0881 88.3335 45.2135C87.3944 45.477 86.5633 45.7054 85.84 45.8987L86.0602 48.9563L89.7227 48.0843L93.3485 47.2159L94.043 50.1907L94.7007 53.1691C92.8013 53.4756 90.681 53.927 88.3397 54.5234C85.9786 55.1712 83.3819 55.9405 80.5497 56.8315C80.3978 55.5107 80.1869 53.5774 79.917 51.0316L79.2737 45.1214C78.7293 39.9807 78.3174 36.0884 78.0381 33.4445L84.5426 32.0392L91.0838 30.6304L91.7748 33.5685L92.4692 36.5433C91.1556 36.7687 89.9154 36.9871 88.7487 37.1983ZM106.717 48.9333C106.138 47.0354 105.294 43.7906 104.184 39.1989C103.913 43.058 103.707 46.441 103.566 49.3479L106.717 48.9333ZM115.595 48.3009L115.593 50.9719L115.587 53.6061C112.24 53.78 108.917 54.0629 105.616 54.4549C102.313 54.8224 99.0131 55.3504 95.7162 56.0388L94.5924 50.9168L96.9531 50.3927C98.12 44.7905 98.947 38.3554 99.4342 31.0876L108.472 29.0303C109.548 35.5789 111.144 42.0032 113.259 48.3033L115.595 48.3009ZM131.1 27.9272C131.085 29.3135 131.128 31.1764 131.23 33.5159C131.547 33.2133 132.007 32.6002 132.611 31.6766C133.156 30.6597 133.551 30.0157 133.797 29.7448C133.079 30.5063 133.827 29.6677 136.04 27.229L141.918 29.3337L135.913 36.7001L144.353 47.6833L138.027 51.3341L131.693 41.4094L132.076 48.0864C132.138 49.2428 132.279 50.3173 132.498 51.3101L126.232 52.8779L125.44 42.3453L120.982 52.6786L114.227 50.3244L120.89 37.8499L113.77 31.7102L119.182 28.5925C119.686 28.9397 120.612 29.8273 121.961 31.2554C123.169 32.4992 124.141 33.3453 124.876 33.7938L124.331 26.205L131.1 27.9272ZM152.718 31.0387C151.532 31.3013 150.393 31.547 149.303 31.7757C149.302 32.5423 149.306 33.0983 149.315 33.4437L149.36 35.0715L152.078 34.4018L154.748 33.6253L155.225 35.8793L155.778 38.1628C153.994 38.6315 152.835 38.9285 152.303 39.0539C151.364 39.3174 150.533 39.5458 149.81 39.7391L150.03 42.7967L153.693 41.9247L157.318 41.0563L158.013 44.0311L158.67 47.0095C156.771 47.316 154.651 47.7675 152.309 48.3638C149.948 49.0116 147.352 49.7809 144.519 50.6719C144.368 49.3511 144.157 47.4178 143.887 44.872L143.244 38.9618C142.699 33.8211 142.287 29.9288 142.008 27.2849L148.512 25.8796L155.054 24.4708L155.745 27.4089L156.439 30.3837C155.125 30.6091 153.885 30.8275 152.718 31.0387ZM159.048 37.4771C158.5 30.7541 157.979 26.761 157.487 25.4977C161.293 24.1915 164.379 23.4987 166.745 23.4192C169.112 23.3397 170.926 23.8204 172.189 24.8611C173.603 25.9366 174.436 27.6493 174.687 29.9992C174.888 31.8345 174.632 33.5407 173.918 35.1179C173.252 36.4185 172.274 37.5636 170.985 38.5533C169.494 39.7603 167.65 40.6426 165.453 41.2003C165.506 42.7779 165.809 45.0238 166.361 47.9381L159.92 49.2261C159.835 47.0581 159.544 43.1418 159.048 37.4771ZM164.71 35.411C166.153 35.2473 167.287 34.6931 168.111 33.7482C168.738 33.0696 169.065 32.2221 169.09 31.2057C169.188 29.9104 168.666 29.1075 167.523 28.7971C166.632 28.5367 165.451 28.7246 163.979 29.3609L164.71 35.411Z" fill="#B040CD"/>
</svg>
