<svg width="1146" height="407" viewBox="0 0 1146 407" fill="none" xmlns="http://www.w3.org/2000/svg">
<path d="M174.087 210.061C189.502 181.997 52.3957 137.194 52.3957 137.194C52.3957 137.194 210.595 154.918 258.46 140.148C306.326 125.377 238.178 44.6324 238.178 44.6324C238.178 44.6324 378.53 94.3595 419.094 88.4513C459.658 82.5431 520.503 11.1528 520.503 11.1528C520.503 11.1528 565.935 100.76 651.119 88.4513C736.304 76.1426 799.583 18.538 799.583 18.538C799.583 18.538 796.338 102.729 834.468 109.622C872.598 116.515 1021.87 103.222 1021.87 103.222C1021.87 103.222 931.01 137.194 961.028 183.474C991.045 229.755 1146 227.293 1146 227.293C1146 227.293 953.726 239.602 933.444 251.91C913.162 264.219 961.028 328.717 961.028 328.717C961.028 328.717 820.676 295.729 786.603 308.53C752.529 321.331 786.603 400.599 786.603 400.599C786.603 400.599 701.934 328.479 625.97 340.041C566.532 349.087 513.202 407 513.202 407C513.202 407 486.09 343.02 431.263 328.717C365.163 311.472 257.649 366.135 257.649 366.135C257.649 366.135 273.063 312.961 257.649 290.314C242.235 267.666 14.2656 277.513 14.2656 277.513C14.2656 277.513 158.673 238.125 174.087 210.061Z" fill="black"/>
<path d="M160.822 203.908C176.236 175.844 39.1301 131.041 39.1301 131.041C39.1301 131.041 197.329 148.765 245.195 133.995C293.06 119.224 224.913 38.4796 224.913 38.4796C224.913 38.4796 365.264 88.2066 405.828 82.2985C446.392 76.3903 507.238 5 507.238 5C507.238 5 552.669 94.6071 637.854 82.2985C723.038 69.9898 786.318 12.3852 786.318 12.3852C786.318 12.3852 783.073 96.5765 821.203 103.469C859.333 110.362 1008.61 97.0689 1008.61 97.0689C1008.61 97.0689 917.745 131.041 947.762 177.321C977.779 223.602 1132.73 221.14 1132.73 221.14C1132.73 221.14 940.461 233.449 920.179 245.758C899.897 258.066 947.762 322.564 947.762 322.564C947.762 322.564 807.411 289.577 773.337 302.378C739.263 315.179 773.337 394.446 773.337 394.446C773.337 394.446 688.669 322.326 612.704 333.888C553.266 342.934 499.936 400.847 499.936 400.847C499.936 400.847 472.825 336.868 417.997 322.564C351.897 305.319 244.384 359.982 244.384 359.982C244.384 359.982 259.798 306.809 244.384 284.161C228.969 261.513 1 271.36 1 271.36C1 271.36 145.408 231.972 160.822 203.908Z" fill="#E4E67F" stroke="black" stroke-width="5"/>
<path d="M95.7754 318.001C103.591 281.375 108.229 240.504 109.688 195.389L141.781 185.573L157.678 247.942L160.648 186.328L191.569 180.779C200.229 220.039 213.553 261.159 231.539 304.137L197.524 314.535L178.769 251.253L176.798 312.969L148.407 318.077L134.092 251.598L130.151 321.615L95.7754 318.001ZM225.946 303.093C234.367 261.792 239.801 220.977 242.248 180.647L288.473 169.667C297.253 204.696 311.142 244.838 330.14 290.093L295.257 301.761L288.439 280.26L265.358 285.054L263.375 307.6L225.946 303.093ZM281.115 257.621L268.587 211.743L265.257 259.345L281.115 257.621ZM327.238 237.551C324.313 201.695 321.537 180.398 318.91 173.661C339.21 166.694 355.67 162.999 368.29 162.575C380.911 162.152 390.588 164.715 397.321 170.265C404.864 176.002 409.304 185.136 410.643 197.668C411.717 207.457 410.351 216.557 406.545 224.968C402.993 231.905 397.778 238.012 390.9 243.291C382.947 249.728 373.113 254.434 361.397 257.408C361.68 265.822 363.295 277.8 366.242 293.343L331.887 300.212C331.433 288.649 329.884 267.762 327.238 237.551ZM357.435 226.532C365.132 225.659 371.178 222.703 375.573 217.663C378.918 214.044 380.658 209.524 380.796 204.103C381.318 197.195 378.531 192.913 372.437 191.258C367.687 189.869 361.387 190.871 353.537 194.265L357.435 226.532ZM410.973 165.785L446.689 156.609C446.494 166.915 446.621 175.08 447.069 181.104C456.823 171.46 465.61 162.041 473.43 152.847L505.582 164.193L472.226 197.872L518.672 265.213L484.602 285.309L448.68 222.494C450.113 241.48 452.279 259.868 455.179 277.657L423.61 288.808L410.973 165.785ZM562.983 177.263C556.656 178.663 550.583 179.973 544.765 181.193C544.763 185.282 544.785 188.247 544.831 190.089L545.073 198.77L559.567 195.199L573.808 191.058L576.35 203.079L579.303 215.258C569.784 217.757 563.606 219.341 560.769 220.01C555.76 221.416 551.328 222.634 547.47 223.665L548.645 239.972L568.178 235.321L587.515 230.69L591.219 246.555L594.727 262.44C584.597 264.075 573.289 266.482 560.802 269.663C548.209 273.118 534.36 277.221 519.255 281.973C518.445 274.929 517.32 264.618 515.881 251.04L512.45 219.519C509.546 192.102 507.35 171.343 505.86 157.242L540.551 149.747L575.437 142.234L579.122 157.903L582.826 173.769C575.82 174.971 569.206 176.136 562.983 177.263ZM681.951 165.807C666.868 168.051 656.019 169.755 649.405 170.919C649.731 185.264 654.322 215.816 663.176 262.575L625.708 274.096L616.188 177.283C614.241 177.603 609.848 178.553 603.01 180.135C596.813 181.523 591.708 182.608 587.695 183.39L586.819 149.645L673.058 133.032L681.951 165.807ZM685.004 156.215C693.557 139.565 706.131 130.441 722.727 128.843C736.971 127.471 749.42 132.801 760.074 144.832C765.981 151.385 770.279 158.357 772.969 165.748C775.659 173.138 777.308 181.355 777.914 190.397C778.864 205.736 775.649 220.29 768.27 234.057C759.6 250.851 747.032 260.04 730.567 261.626C716.061 263.022 703.534 257.568 692.985 245.263C688.001 240.072 683.937 233.473 680.792 225.467C677.921 217.566 676.253 209.154 675.79 200.23C675.064 184.473 678.135 169.802 685.004 156.215ZM739.688 173.503C735.667 165.977 730.846 162.484 725.227 163.025C718.693 163.654 714.003 169.052 711.157 179.217C708.869 186.955 707.775 194.776 707.877 202.68C708.111 206.482 708.974 209.96 710.464 213.114C712.119 217.966 714.431 221.436 717.402 223.524C720.815 226.097 724.939 227.151 729.774 226.685C736.439 226.044 741.187 222.619 744.018 216.411C746.284 211.181 747.117 204.77 746.518 197.179C745.844 188.803 743.567 180.911 739.688 173.503ZM834.686 254.172C831.449 235.624 826.09 208.047 818.609 171.443C817.538 206.892 817.205 233.566 817.609 251.464L776.947 252.412C784.144 213.471 789.808 172.304 793.939 128.91L840.398 118.304C846.371 152.943 857.112 194.641 872.622 243.397L834.686 254.172ZM871.392 138.268C879.945 121.618 892.519 112.494 909.115 110.896C923.359 109.524 935.808 114.854 946.462 126.885C952.369 133.438 956.667 140.41 959.357 147.801C962.047 155.191 963.696 163.408 964.302 172.45C965.252 187.789 962.037 202.343 954.658 216.11C945.988 232.904 933.42 242.093 916.954 243.679C902.449 245.075 889.922 239.621 879.373 227.316C874.389 222.125 870.325 215.526 867.18 207.52C864.309 199.619 862.641 191.207 862.178 182.283C861.452 166.526 864.523 151.854 871.392 138.268ZM926.076 155.556C922.054 148.029 917.234 144.537 911.615 145.078C905.081 145.707 900.391 151.105 897.545 161.27C895.257 169.008 894.163 176.829 894.265 184.733C894.499 188.535 895.362 192.013 896.852 195.167C898.506 200.019 900.819 203.489 903.79 205.577C907.203 208.15 911.327 209.204 916.162 208.738C922.826 208.097 927.574 204.672 930.406 198.464C932.672 193.234 933.505 186.823 932.906 179.231C932.232 170.855 929.955 162.964 926.076 155.556ZM1003.84 182.886C1001.59 169.123 1004.19 183.776 1011.63 226.846L994.175 232.484L976.127 238.179L968.949 175.959L962.144 113.505L998.01 105.897L1033.68 98.3077L1037.37 113.977L1041.05 129.647C1029.78 131.787 1022.08 133.255 1017.93 134.049C1009.38 135.664 1002.79 137.024 998.147 138.131C998.887 149.93 1000.79 164.848 1003.84 182.886Z" fill="black"/>
<path d="M85.3943 316.507C93.21 279.88 97.8474 239.01 99.3065 193.895L131.4 184.079L147.297 246.448L150.266 184.834L181.188 179.284C189.848 218.545 203.171 259.664 221.158 302.643L187.143 313.04L168.388 249.759L166.417 311.475L138.025 316.583L123.711 250.104L119.77 320.121L85.3943 316.507ZM215.565 301.599C223.985 260.298 229.42 219.483 231.867 179.153L278.092 168.173C286.872 203.202 300.761 243.343 319.758 288.599L284.876 300.266L278.058 278.766L254.977 283.56L252.994 306.106L215.565 301.599ZM270.734 256.126L258.205 210.248L254.876 257.851L270.734 256.126ZM316.857 236.056C313.932 200.2 311.156 178.904 308.529 172.167C328.829 165.2 345.289 161.505 357.909 161.081C370.53 160.657 380.207 163.221 386.94 168.771C394.482 174.507 398.923 183.642 400.262 196.174C401.336 205.962 399.97 215.062 396.164 223.474C392.611 230.411 387.396 236.518 380.519 241.796C372.566 248.233 362.732 252.939 351.016 255.914C351.299 264.327 352.914 276.306 355.861 291.849L321.506 298.718C321.052 287.155 319.502 266.268 316.857 236.056ZM347.054 225.038C354.751 224.164 360.797 221.208 365.192 216.169C368.536 212.55 370.277 208.03 370.415 202.609C370.937 195.701 368.15 191.419 362.056 189.763C357.306 188.374 351.006 189.377 343.156 192.77L347.054 225.038ZM400.592 164.291L436.308 155.115C436.113 165.421 436.24 173.586 436.688 179.61C446.442 169.966 455.229 160.547 463.049 151.353L495.201 162.699L461.845 196.377L508.291 263.719L474.221 283.815L438.299 221C439.732 239.986 441.898 258.373 444.798 276.163L413.229 287.314L400.592 164.291ZM552.602 175.768C546.275 177.169 540.202 178.479 534.384 179.699C534.382 183.787 534.404 186.753 534.45 188.595L534.692 197.276L549.186 193.704L563.427 189.564L565.969 201.584L568.922 213.764C559.403 216.263 553.225 217.847 550.388 218.516C545.379 219.921 540.946 221.139 537.089 222.17L538.264 238.477L557.797 233.827L577.134 229.195L580.838 245.061L584.346 260.946C574.216 262.58 562.908 264.988 550.421 268.169C537.828 271.624 523.979 275.727 508.874 280.478C508.064 273.434 506.939 263.123 505.5 249.546L502.069 218.025C499.165 190.607 496.968 169.849 495.479 155.748L530.169 148.253L565.056 140.739L568.741 156.409L572.445 172.275C565.439 173.477 558.824 174.642 552.602 175.768ZM671.57 164.313C656.487 166.557 645.638 168.261 639.024 169.425C639.35 183.77 643.941 214.322 652.795 261.081L615.327 272.602L605.807 175.789C603.86 176.108 599.467 177.059 592.629 178.64C586.432 180.028 581.327 181.114 577.314 181.896L576.438 148.15L662.677 131.537L671.57 164.313ZM674.623 154.721C683.175 138.071 695.75 128.946 712.346 127.348C726.59 125.977 739.039 131.307 749.693 143.338C755.6 149.891 759.898 156.863 762.588 164.254C765.278 171.644 766.926 179.86 767.533 188.902C768.483 204.242 765.268 218.796 757.889 232.563C749.219 249.357 736.651 258.546 720.185 260.131C705.68 261.528 693.153 256.074 682.604 243.769C677.62 238.578 673.555 231.979 670.411 223.973C667.54 216.072 665.872 207.66 665.409 198.736C664.683 182.979 667.754 168.307 674.623 154.721ZM729.307 172.008C725.285 164.482 720.465 160.99 714.846 161.531C708.312 162.16 703.622 167.557 700.776 177.723C698.488 185.461 697.394 193.282 697.496 201.186C697.73 204.988 698.592 208.466 700.083 211.619C701.737 216.472 704.05 219.942 707.021 222.03C710.434 224.603 714.558 225.657 719.393 225.191C726.057 224.549 730.805 221.125 733.637 214.917C735.903 209.687 736.736 203.276 736.137 195.684C735.463 187.308 733.186 179.416 729.307 172.008ZM824.305 252.678C821.068 234.129 815.709 206.553 808.228 169.949C807.157 205.398 806.824 232.072 807.228 249.97L766.566 250.917C773.763 211.977 779.427 170.809 783.558 127.416L830.017 116.809C835.99 151.449 846.731 193.146 862.241 241.903L824.305 252.678ZM861.011 136.774C869.563 120.123 882.138 110.999 898.734 109.401C912.978 108.03 925.427 113.36 936.081 125.391C941.988 131.944 946.286 138.916 948.976 146.306C951.666 153.697 953.314 161.913 953.921 170.955C954.871 186.295 951.656 200.848 944.277 214.616C935.607 231.409 923.039 240.599 906.573 242.184C892.068 243.581 879.541 238.127 868.992 225.822C864.008 220.63 859.943 214.032 856.799 206.025C853.928 198.125 852.26 189.713 851.797 180.789C851.071 165.032 854.142 150.36 861.011 136.774ZM915.695 154.061C911.673 146.535 906.853 143.043 901.234 143.584C894.7 144.213 890.01 149.61 887.164 159.776C884.876 167.514 883.782 175.335 883.884 183.238C884.118 187.041 884.98 190.519 886.471 193.672C888.125 198.525 890.438 201.995 893.409 204.083C896.822 206.656 900.946 207.71 905.781 207.244C912.445 206.602 917.193 203.178 920.025 196.97C922.291 191.74 923.124 185.329 922.525 177.737C921.851 169.361 919.574 161.469 915.695 154.061ZM993.46 181.392C991.211 167.628 993.809 182.282 1001.25 225.352L983.794 230.99L965.746 236.685L958.567 174.464L951.763 112.011L987.629 104.403L1023.3 96.8134L1026.98 112.483L1030.67 128.153C1019.4 130.293 1011.7 131.76 1007.55 132.555C999.002 134.17 992.407 135.53 987.765 136.636C988.506 148.435 990.404 163.354 993.46 181.392Z" fill="#B040CD"/>
</svg>
