<svg width="162" height="57" viewBox="0 0 162 57" fill="none" xmlns="http://www.w3.org/2000/svg">
<path fill-rule="evenodd" clip-rule="evenodd" d="M94.9974 47.9161C130.697 47.9161 161 43.5744 161 25.7564C161 7.93838 124.667 1.14407 88.9669 1.14407C85.3281 1.14407 81.5173 1.1099 77.6071 1.07485C43.1553 0.76597 1 0.388026 1 22.7031C1 29.2108 4.00065 34.0635 9.05731 37.677C7.15462 43.7663 6.83826 51.465 7.04957 55.9991C9.46866 47.6989 14.3295 43.9643 19.1347 42.5926C36.3246 48.3925 62.6781 48.1656 84.4207 47.9784C88.1006 47.9467 91.6485 47.9161 94.9974 47.9161Z" fill="white"/>
<path d="M77.6071 1.07485L77.6116 0.574869L77.6071 1.07485ZM9.05731 37.677L9.53455 37.8261L9.6425 37.4807L9.34802 37.2702L9.05731 37.677ZM7.04957 55.9991L6.55012 56.0224L7.5296 56.139L7.04957 55.9991ZM19.1347 42.5926L19.2945 42.1189L19.1471 42.0691L18.9974 42.1119L19.1347 42.5926ZM84.4207 47.9784L84.4164 47.4784L84.4207 47.9784ZM160.5 25.7564C160.5 30.046 158.685 33.5254 155.382 36.3562C152.063 39.2009 147.239 41.3888 141.253 43.0359C129.284 46.3298 112.84 47.4161 94.9974 47.4161V48.4161C112.855 48.4161 129.412 47.3316 141.519 44.0001C147.572 42.3345 152.555 40.0961 156.033 37.1155C159.527 34.1208 161.5 30.3757 161.5 25.7564H160.5ZM88.9669 1.64407C106.794 1.64407 124.75 3.34144 138.232 7.24871C144.975 9.20304 150.563 11.7001 154.454 14.7855C158.337 17.8636 160.5 21.4974 160.5 25.7564H161.5C161.5 21.1063 159.121 17.2091 155.076 14.0019C151.04 10.8022 145.313 8.25973 138.51 6.28824C124.9 2.34386 106.839 0.644071 88.9669 0.644071V1.64407ZM77.6027 1.57483C81.5123 1.60988 85.3255 1.64407 88.9669 1.64407V0.644071C85.3308 0.644071 81.5222 0.609929 77.6116 0.574869L77.6027 1.57483ZM1.5 22.7031C1.5 17.3161 4.02968 13.2989 8.409 10.2777C12.8124 7.23985 19.0757 5.22064 26.4722 3.89718C41.2618 1.25084 60.3618 1.42026 77.6027 1.57483L77.6116 0.574869C60.4006 0.420563 41.197 0.246564 26.2961 2.91281C18.8472 4.24564 12.4185 6.29672 7.84114 9.45452C3.23973 12.6289 0.5 16.9326 0.5 22.7031H1.5ZM9.34802 37.2702C4.40155 33.7354 1.5 29.025 1.5 22.7031H0.5C0.5 29.3966 3.59976 34.3915 8.7666 38.0838L9.34802 37.2702ZM8.58006 37.5279C6.65295 43.6954 6.33745 51.4593 6.55012 56.0224L7.54903 55.9758C7.33907 51.4707 7.65629 43.8373 9.53455 37.8261L8.58006 37.5279ZM7.5296 56.139C9.90243 47.9975 14.6382 44.3962 19.2719 43.0734L18.9974 42.1119C14.0209 43.5325 9.0349 47.4003 6.56955 55.8592L7.5296 56.139ZM84.4164 47.4784C73.5422 47.572 61.5345 47.6753 50.0985 47.0315C38.6571 46.3874 27.8249 44.997 19.2945 42.1189L18.9748 43.0664C27.6343 45.9881 38.5738 47.3843 50.0423 48.0299C61.5162 48.6758 73.5566 48.5719 84.425 48.4784L84.4164 47.4784ZM94.9974 47.4161C91.6459 47.4161 88.0958 47.4467 84.4164 47.4784L84.425 48.4784C88.1054 48.4467 91.651 48.4161 94.9974 48.4161V47.4161Z" fill="black"/>
<path d="M20.0783 22.8927C19.8623 22.8927 19.6943 22.7927 19.5743 22.5927C19.5183 22.5047 19.4903 22.4087 19.4903 22.3047C19.4903 22.2567 19.4983 22.2047 19.5143 22.1487L19.7663 21.4047C20.1423 20.2287 20.5503 19.0647 20.9903 17.9127C21.4303 16.7527 21.9583 15.6367 22.5743 14.5647C22.6943 14.3727 22.8623 14.2767 23.0783 14.2767C23.3663 14.2767 23.5543 14.4207 23.6423 14.7087C24.3543 16.6127 24.8903 17.9727 25.2503 18.7887L25.3223 18.9687C25.3223 18.9767 25.3263 18.9807 25.3343 18.9807L25.4063 19.1727C25.8863 20.2527 26.2783 21.0967 26.5823 21.7047C26.6303 21.8007 26.6543 21.9007 26.6543 22.0047C26.6543 22.2127 26.5583 22.3767 26.3663 22.4967C26.2783 22.5527 26.1823 22.5807 26.0783 22.5807C26.0303 22.5807 25.9543 22.5687 25.8503 22.5447C25.6583 22.5047 25.1463 21.5167 24.3143 19.5807H21.6143C21.3583 20.3167 21.1103 21.0527 20.8703 21.7887L20.6423 22.4607C20.5943 22.6127 20.5023 22.7287 20.3663 22.8087C20.2783 22.8647 20.1823 22.8927 20.0783 22.8927ZM23.8343 18.4167C23.5463 17.7047 23.2623 16.9887 22.9823 16.2687C22.7583 16.7167 22.5583 17.1567 22.3823 17.5887C22.2623 17.8607 22.1503 18.1367 22.0463 18.4167H23.8343ZM32.658 22.9767C32.514 22.9767 32.382 22.9207 32.262 22.8087C32.142 22.7047 32.082 22.5767 32.082 22.4247V22.4007C32.146 21.5367 32.178 20.6727 32.178 19.8087L32.142 17.4207H30.594C30.434 17.4127 30.298 17.3527 30.186 17.2407C30.074 17.1287 30.018 16.9967 30.018 16.8447C30.018 16.6847 30.074 16.5487 30.186 16.4367C30.298 16.3247 30.434 16.2687 30.594 16.2687L33.03 16.2567L33.282 16.2447C33.442 16.2447 33.782 16.2447 34.302 16.2447C34.822 16.2447 35.138 16.2727 35.25 16.3287C35.426 16.4247 35.514 16.5847 35.514 16.8087C35.514 16.9047 35.482 17.0127 35.418 17.1327C35.354 17.2527 35.246 17.3327 35.094 17.3727C34.862 17.4047 34.626 17.4207 34.386 17.4207L33.294 17.4087L33.33 19.8087C33.33 21.6007 33.242 22.6007 33.066 22.8087C32.962 22.9207 32.826 22.9767 32.658 22.9767ZM40.1093 22.9767C39.0773 22.9767 38.1893 22.5887 37.4453 21.8127C36.8053 21.0927 36.4853 20.2527 36.4853 19.2927C36.5333 18.2687 36.9693 17.4607 37.7933 16.8687C38.4413 16.4527 39.1293 16.2447 39.8573 16.2447C40.6253 16.2447 41.2733 16.4527 41.8013 16.8687C42.3133 17.3007 42.6293 17.8727 42.7493 18.5847C42.7813 18.6887 42.7973 18.7927 42.7973 18.8967C42.7973 19.8087 41.7373 20.2647 39.6173 20.2647C39.0093 20.2647 38.4093 20.2487 37.8173 20.2167L37.8413 20.3007L37.9253 20.4687L38.0693 20.7207L38.1773 20.8647V20.8767C38.3133 21.0287 38.4653 21.1767 38.6333 21.3207L38.6933 21.3687L39.1133 21.6087C39.1213 21.6087 39.1333 21.6127 39.1493 21.6207C39.1653 21.6287 39.1813 21.6367 39.1973 21.6447C39.2133 21.6447 39.2253 21.6487 39.2333 21.6567C39.3453 21.6967 39.4733 21.7327 39.6173 21.7647C39.6573 21.7647 39.6853 21.7687 39.7013 21.7767L40.0613 21.8007C40.2133 21.8007 40.3653 21.7927 40.5173 21.7767C40.5573 21.7767 40.5773 21.7727 40.5773 21.7647C40.8333 21.7647 41.2493 21.6487 41.8253 21.4167C41.8813 21.3927 41.9413 21.3807 42.0053 21.3807C42.0933 21.3807 42.1933 21.4167 42.3053 21.4887C42.4813 21.6007 42.5693 21.7647 42.5693 21.9807C42.5693 22.2367 42.4253 22.4247 42.1373 22.5447C41.4253 22.8327 40.7493 22.9767 40.1093 22.9767ZM39.3773 19.0767C39.8573 19.0767 40.3373 19.0567 40.8173 19.0167C40.8493 19.0087 40.8853 19.0047 40.9253 19.0047C40.9253 18.9967 40.9333 18.9927 40.9493 18.9927C41.1973 18.9687 41.4133 18.9167 41.5973 18.8367H41.6093C41.6093 18.7487 41.5693 18.5967 41.4893 18.3807C41.4893 18.3567 41.4813 18.3367 41.4653 18.3207V18.3087C41.3933 18.1647 41.3293 18.0607 41.2733 17.9967V17.9847C41.2093 17.9047 41.1373 17.8327 41.0573 17.7687L41.0333 17.7447C40.9293 17.6647 40.8253 17.6047 40.7213 17.5647L40.6613 17.5407C40.5253 17.4847 40.3893 17.4487 40.2533 17.4327L39.8693 17.4087C39.6933 17.4087 39.5653 17.4167 39.4853 17.4327L39.1133 17.5287C38.8813 17.5767 38.6453 17.6887 38.4053 17.8647C38.3813 17.8647 38.3573 17.8847 38.3333 17.9247H38.3213C38.2653 17.9727 38.2133 18.0247 38.1653 18.0807L38.0213 18.2247C37.9253 18.3687 37.8533 18.4887 37.8053 18.5847V18.5967C37.8053 18.6047 37.8013 18.6087 37.7933 18.6087C37.7613 18.6887 37.7373 18.7687 37.7213 18.8487C37.7053 18.9207 37.6893 18.9847 37.6733 19.0407C38.3373 19.0647 38.9053 19.0767 39.3773 19.0767ZM44.3275 22.8807C44.1675 22.8807 44.0315 22.8247 43.9195 22.7127C43.8075 22.6007 43.7515 22.4647 43.7515 22.3047C43.7515 21.5687 43.7595 20.8287 43.7755 20.0847L43.7875 18.0687L43.7755 17.5407C43.7515 17.4687 43.7395 17.3487 43.7395 17.1807C43.7395 16.6527 43.9515 16.3407 44.3755 16.2447C44.5755 16.2047 44.7715 16.1847 44.9635 16.1847L45.5275 16.2207C45.7515 16.2367 45.9555 16.2447 46.1395 16.2447C46.3955 16.2447 46.5835 16.2407 46.7035 16.2327H47.4115C47.9235 16.2167 48.4355 16.2087 48.9475 16.2087C49.1155 16.2167 49.2515 16.2807 49.3555 16.4007C49.4675 16.5207 49.5235 16.7087 49.5235 16.9647C49.5235 17.0767 49.5155 17.1927 49.4995 17.3127C49.4835 17.4327 49.4755 17.6647 49.4755 18.0087C49.4755 19.4887 49.4715 20.4647 49.4635 20.9367L49.4515 21.3807C49.4515 21.6847 49.4675 21.9887 49.4995 22.2927V22.3167C49.4995 22.4687 49.4355 22.6007 49.3075 22.7127C49.1875 22.8167 49.0595 22.8687 48.9235 22.8687C48.7635 22.8687 48.6275 22.8127 48.5155 22.7007C48.4035 22.5807 48.3435 22.4447 48.3355 22.2927C48.3035 22.0127 48.2875 21.7327 48.2875 21.4527C48.2875 21.2687 48.2955 21.0807 48.3115 20.8887C48.3195 20.4327 48.3235 19.7327 48.3235 18.7887C48.3235 18.0607 48.3315 17.5927 48.3475 17.3847V17.3727L47.3155 17.3847C47.1635 17.3847 47.0155 17.3887 46.8715 17.3967L46.3435 17.4087C46.0795 17.4087 45.8155 17.3967 45.5515 17.3727C45.3355 17.3487 45.1195 17.3367 44.9035 17.3367C44.9355 17.6007 44.9555 17.8727 44.9635 18.1527L44.9395 18.8367L44.9275 19.9887C44.9115 20.7647 44.9035 21.5367 44.9035 22.3047C44.8955 22.4647 44.8355 22.6007 44.7235 22.7127C44.6115 22.8247 44.4795 22.8807 44.3275 22.8807ZM54.0897 22.9767C53.0577 22.9767 52.1697 22.5887 51.4257 21.8127C50.7857 21.0927 50.4657 20.2527 50.4657 19.2927C50.5137 18.2687 50.9497 17.4607 51.7737 16.8687C52.4217 16.4527 53.1097 16.2447 53.8377 16.2447C54.6057 16.2447 55.2537 16.4527 55.7817 16.8687C56.2937 17.3007 56.6097 17.8727 56.7297 18.5847C56.7617 18.6887 56.7777 18.7927 56.7777 18.8967C56.7777 19.8087 55.7177 20.2647 53.5977 20.2647C52.9897 20.2647 52.3897 20.2487 51.7977 20.2167L51.8217 20.3007L51.9057 20.4687L52.0497 20.7207L52.1577 20.8647V20.8767C52.2937 21.0287 52.4457 21.1767 52.6137 21.3207L52.6737 21.3687L53.0937 21.6087C53.1017 21.6087 53.1137 21.6127 53.1297 21.6207C53.1457 21.6287 53.1617 21.6367 53.1777 21.6447C53.1937 21.6447 53.2057 21.6487 53.2137 21.6567C53.3257 21.6967 53.4537 21.7327 53.5977 21.7647C53.6377 21.7647 53.6657 21.7687 53.6817 21.7767L54.0417 21.8007C54.1937 21.8007 54.3457 21.7927 54.4977 21.7767C54.5377 21.7767 54.5577 21.7727 54.5577 21.7647C54.8137 21.7647 55.2297 21.6487 55.8057 21.4167C55.8617 21.3927 55.9217 21.3807 55.9857 21.3807C56.0737 21.3807 56.1737 21.4167 56.2857 21.4887C56.4617 21.6007 56.5497 21.7647 56.5497 21.9807C56.5497 22.2367 56.4057 22.4247 56.1177 22.5447C55.4057 22.8327 54.7297 22.9767 54.0897 22.9767ZM53.3577 19.0767C53.8377 19.0767 54.3177 19.0567 54.7977 19.0167C54.8297 19.0087 54.8657 19.0047 54.9057 19.0047C54.9057 18.9967 54.9137 18.9927 54.9297 18.9927C55.1777 18.9687 55.3937 18.9167 55.5777 18.8367H55.5897C55.5897 18.7487 55.5497 18.5967 55.4697 18.3807C55.4697 18.3567 55.4617 18.3367 55.4457 18.3207V18.3087C55.3737 18.1647 55.3097 18.0607 55.2537 17.9967V17.9847C55.1897 17.9047 55.1177 17.8327 55.0377 17.7687L55.0137 17.7447C54.9097 17.6647 54.8057 17.6047 54.7017 17.5647L54.6417 17.5407C54.5057 17.4847 54.3697 17.4487 54.2337 17.4327L53.8497 17.4087C53.6737 17.4087 53.5457 17.4167 53.4657 17.4327L53.0937 17.5287C52.8617 17.5767 52.6257 17.6887 52.3857 17.8647C52.3617 17.8647 52.3377 17.8847 52.3137 17.9247H52.3017C52.2457 17.9727 52.1937 18.0247 52.1457 18.0807L52.0017 18.2247C51.9057 18.3687 51.8337 18.4887 51.7857 18.5847V18.5967C51.7857 18.6047 51.7817 18.6087 51.7737 18.6087C51.7417 18.6887 51.7177 18.7687 51.7017 18.8487C51.6857 18.9207 51.6697 18.9847 51.6537 19.0407C52.3177 19.0647 52.8857 19.0767 53.3577 19.0767ZM59.04 17.6127V17.8407C59.04 19.1447 59.1 20.2807 59.22 21.2487H59.232C59.352 21.2967 59.54 21.3447 59.796 21.3927H59.844C59.932 21.4087 60.04 21.4167 60.168 21.4167L60.48 21.4047C60.488 21.4047 60.5 21.4047 60.516 21.4047C60.54 21.3967 60.56 21.3927 60.576 21.3927C60.592 21.3927 60.604 21.3887 60.612 21.3807C60.908 21.3407 61.136 21.2807 61.296 21.2007L61.392 21.1647C61.664 21.0447 61.844 20.9407 61.932 20.8527C61.94 20.8527 61.948 20.8487 61.956 20.8407C61.972 20.8247 61.988 20.8127 62.004 20.8047C62.132 20.7007 62.252 20.5807 62.364 20.4447L62.376 20.4207C62.416 20.3807 62.476 20.2887 62.556 20.1447L62.652 19.9647V19.9407C62.716 19.7887 62.76 19.6327 62.784 19.4727L62.796 19.4007C62.804 19.2887 62.808 19.1727 62.808 19.0527C62.808 18.9407 62.788 18.8327 62.748 18.7287C62.748 18.6727 62.704 18.5847 62.616 18.4647V18.4527C62.528 18.3647 62.464 18.3047 62.424 18.2727C62.424 18.2647 62.42 18.2607 62.412 18.2607C62.404 18.2607 62.4 18.2567 62.4 18.2487C62.28 18.1687 62.14 18.0887 61.98 18.0087H61.968C61.76 17.9287 61.46 17.8447 61.068 17.7567L60.768 17.7087C60.192 17.6447 59.616 17.6127 59.04 17.6127ZM58.992 16.4367C60.688 16.4367 61.964 16.6687 62.82 17.1327C63.236 17.3567 63.548 17.6807 63.756 18.1047C63.908 18.4487 63.984 18.8087 63.984 19.1847C63.984 19.8727 63.772 20.5007 63.348 21.0687C62.556 22.0767 61.5 22.5807 60.18 22.5807C59.884 22.5807 59.592 22.5487 59.304 22.4847C59.328 22.8927 59.34 23.2967 59.34 23.6967C59.34 24.0407 59.332 24.3807 59.316 24.7167C59.3 24.8847 59.24 25.0247 59.136 25.1367C59.032 25.2487 58.896 25.3047 58.728 25.3047C58.576 25.3047 58.44 25.2487 58.32 25.1367C58.2 25.0247 58.14 24.8847 58.14 24.7167C58.156 24.3807 58.164 24.0487 58.164 23.7207C58.164 22.7687 58.112 21.8247 58.008 20.8887C57.912 19.9527 57.864 19.0167 57.864 18.0807C57.864 17.7287 57.872 17.3767 57.888 17.0247C57.904 16.8647 57.964 16.7287 58.068 16.6167C58.172 16.4967 58.308 16.4367 58.476 16.4367L58.548 16.4487C58.596 16.4407 58.744 16.4367 58.992 16.4367ZM66.9237 22.9407H65.9877C65.7557 22.9407 65.5797 22.8207 65.4597 22.5807C65.3877 22.4847 65.3517 22.3727 65.3517 22.2447C65.3597 21.3247 65.3797 20.4007 65.4117 19.4727C65.4437 18.5447 65.4597 17.6167 65.4597 16.6887C65.4677 16.5287 65.5277 16.3927 65.6397 16.2807C65.7517 16.1687 65.8837 16.1127 66.0357 16.1127C66.1957 16.1127 66.3317 16.1687 66.4437 16.2807C66.5557 16.3927 66.6117 16.5287 66.6117 16.6887C66.6117 17.4007 66.5997 18.0327 66.5757 18.5847L67.3797 18.5607C68.4837 18.5607 69.4477 18.7447 70.2717 19.1127C71.0077 19.4727 71.3757 20.0647 71.3757 20.8887C71.3757 21.2327 71.2997 21.5327 71.1477 21.7887C70.7957 22.3167 70.1917 22.6527 69.3357 22.7967C68.7597 22.8927 67.9557 22.9407 66.9237 22.9407ZM66.5037 21.7887C67.7677 21.7887 68.5357 21.7607 68.8077 21.7047C68.8397 21.7047 68.9837 21.6807 69.2397 21.6327C69.5517 21.5767 69.8037 21.4847 69.9957 21.3567C70.0197 21.3567 70.0717 21.3087 70.1517 21.2127C70.1917 21.1567 70.2117 21.0527 70.2117 20.9007C70.2117 20.6447 70.1637 20.4687 70.0677 20.3727C69.9397 20.2447 69.8277 20.1607 69.7317 20.1207C69.1877 19.9287 68.5957 19.7967 67.9557 19.7247C67.4917 19.7247 67.1917 19.7287 67.0557 19.7367H66.5397L66.5037 21.7887ZM78.4193 19.3527C78.8113 19.3527 79.1153 19.2767 79.3313 19.1247C79.2993 18.5087 79.2793 17.8967 79.2713 17.2887L79.2233 17.2767C79.1673 17.2767 79.1153 17.2727 79.0673 17.2647C78.1713 17.2807 77.5913 17.3127 77.3273 17.3607C77.0633 17.4007 76.8593 17.4527 76.7153 17.5167C76.5713 17.5807 76.4553 17.6767 76.3673 17.8047C76.2793 17.9247 76.2113 18.1207 76.1633 18.3927C76.1633 18.5127 76.1673 18.5807 76.1753 18.5967C76.4633 19.1007 77.2113 19.3527 78.4193 19.3527ZM75.7673 23.0247C75.3833 23.0247 75.1913 22.7687 75.1913 22.2567C75.1913 21.3367 75.5153 20.5927 76.1633 20.0247C75.9553 19.9207 75.7593 19.7967 75.5753 19.6527C75.1993 19.3567 75.0113 18.9607 75.0113 18.4647C75.0113 18.2567 75.0473 18.0487 75.1193 17.8407C75.2633 17.2887 75.5793 16.8647 76.0673 16.5687C76.6833 16.2807 77.3313 16.1367 78.0113 16.1367C78.3393 16.1207 78.6233 16.1127 78.8633 16.1127C79.1193 16.1127 79.3913 16.1407 79.6793 16.1967C79.7273 16.1807 79.7833 16.1727 79.8473 16.1727C79.9993 16.1727 80.1313 16.2287 80.2433 16.3407C80.3553 16.4527 80.4153 16.5887 80.4233 16.7487C80.4233 17.7087 80.4473 18.6687 80.4953 19.6287C80.5513 20.5887 80.5793 21.5127 80.5793 22.4007C80.5713 22.5607 80.5113 22.6967 80.3993 22.8087C80.2873 22.9207 80.1553 22.9767 80.0033 22.9767C79.8433 22.9767 79.7073 22.9207 79.5953 22.8087C79.4833 22.6967 79.4273 22.5607 79.4273 22.4007C79.4273 21.7607 79.4153 21.0687 79.3913 20.3247L78.9353 20.3487C78.8073 20.3487 78.5953 20.3607 78.2993 20.3847C78.0033 20.4087 77.7433 20.4567 77.5193 20.5287C77.1993 20.6727 76.9593 20.8327 76.7993 21.0087C76.6953 21.0887 76.6033 21.2447 76.5233 21.4767C76.4033 21.7967 76.3433 22.1207 76.3433 22.4487C76.3433 22.6087 76.2833 22.7447 76.1633 22.8567C76.0513 22.9687 75.9193 23.0247 75.7673 23.0247ZM86.7473 22.9767L86.3273 22.9647C85.0873 22.9327 84.3153 22.4167 84.0113 21.4167L83.9993 21.3087C83.9993 21.1967 84.0433 21.0847 84.1313 20.9727C84.2353 20.8207 84.3873 20.7447 84.5873 20.7447C84.8593 20.7447 85.0553 20.9247 85.1753 21.2847L85.3313 21.5007L85.3793 21.5247C85.4273 21.5727 85.4753 21.6087 85.5233 21.6327L85.5953 21.6807L85.7873 21.7527H85.7993C86.1273 21.8007 86.5033 21.8247 86.9273 21.8247C87.0473 21.8247 87.1633 21.8127 87.2753 21.7887L87.7193 21.7047L87.8153 21.6687C87.9273 21.6287 88.0513 21.5687 88.1873 21.4887L88.3193 21.4047C88.3833 21.3567 88.4433 21.3047 88.4993 21.2487L88.5953 21.1287C88.5953 21.1127 88.5993 21.0967 88.6073 21.0807C88.6233 21.0647 88.6353 21.0487 88.6433 21.0327C88.6513 21.0087 88.6633 20.9847 88.6793 20.9607C88.6953 20.9367 88.7073 20.9087 88.7153 20.8767C88.7313 20.8447 88.7433 20.8207 88.7513 20.8047C88.7753 20.7567 88.7873 20.7207 88.7873 20.6967C88.7873 20.6647 88.7873 20.6487 88.7873 20.6487C88.7953 20.6407 88.7993 20.6287 88.7993 20.6127V20.5047C88.7913 20.4887 88.7873 20.4687 88.7873 20.4447C88.7873 20.3727 88.7753 20.3087 88.7513 20.2527L88.7273 20.2287C88.6953 20.1967 88.6753 20.1767 88.6673 20.1687C88.6593 20.1607 88.6473 20.1527 88.6313 20.1447L88.4873 20.0847H88.4393C88.3593 20.0687 88.2513 20.0607 88.1153 20.0607C87.9633 20.0607 87.8073 20.0767 87.6473 20.1087C87.3193 20.1647 86.9873 20.1927 86.6513 20.1927C86.4833 20.1767 86.3513 20.1087 86.2553 19.9887C86.1673 19.8687 86.1233 19.7367 86.1233 19.5927C86.1233 19.4567 86.1713 19.3367 86.2673 19.2327C86.3633 19.1287 86.4753 19.0687 86.6033 19.0527C86.9073 19.0047 87.1113 18.9607 87.2153 18.9207C87.2313 18.9207 87.2433 18.9167 87.2513 18.9087C87.4513 18.8367 87.5913 18.7767 87.6713 18.7287L87.7793 18.6687C87.8673 18.5967 87.9153 18.5527 87.9233 18.5367C87.9393 18.5207 87.9513 18.5047 87.9593 18.4887C87.9753 18.4727 87.9913 18.4527 88.0073 18.4287C88.0153 18.4047 88.0233 18.3847 88.0313 18.3687C88.0393 18.3527 88.0433 18.3407 88.0433 18.3327C88.0433 18.3247 88.0473 18.2847 88.0553 18.2127C88.0553 18.1567 88.0513 18.1207 88.0433 18.1047L87.9953 18.0087L87.9593 17.9487C87.8873 17.8767 87.8433 17.8327 87.8273 17.8167C87.8193 17.8007 87.8073 17.7887 87.7913 17.7807C87.7753 17.7647 87.7633 17.7567 87.7553 17.7567C87.7553 17.7487 87.6713 17.6887 87.5033 17.5767C87.2953 17.4807 87.1353 17.4207 87.0233 17.3967L86.8073 17.3607C86.7273 17.3527 86.6033 17.3487 86.4353 17.3487H86.4113V17.3367C86.1873 17.3527 85.9993 17.3847 85.8473 17.4327C85.7753 17.4567 85.7313 17.4727 85.7153 17.4807C85.7073 17.4807 85.6993 17.4847 85.6913 17.4927C85.6833 17.4927 85.6753 17.4967 85.6673 17.5047C85.6593 17.5047 85.6473 17.5087 85.6313 17.5167C85.6233 17.5247 85.6153 17.5327 85.6073 17.5407L85.5953 17.5527C85.4353 17.7527 85.3313 17.9247 85.2833 18.0687C85.3713 18.1727 85.4153 18.2927 85.4153 18.4287C85.4153 18.5567 85.3793 18.6727 85.3073 18.7767C85.1873 18.9367 85.0313 19.0167 84.8393 19.0167C84.7193 19.0167 84.6073 18.9807 84.5033 18.9087C84.2473 18.7167 84.1193 18.4807 84.1193 18.2007C84.1193 17.8247 84.2513 17.4487 84.5153 17.0727C84.8753 16.4887 85.5353 16.1967 86.4953 16.1967C87.0953 16.1967 87.6593 16.3487 88.1873 16.6527C88.8673 17.0447 89.2073 17.5727 89.2073 18.2367C89.2073 18.5247 89.1313 18.7927 88.9793 19.0407C89.4593 19.2327 89.7593 19.5647 89.8793 20.0367C89.9353 20.2127 89.9633 20.3567 89.9633 20.4687C89.9633 20.5647 89.9513 20.6687 89.9273 20.7807C89.8473 21.3327 89.6033 21.7967 89.1953 22.1727C88.5473 22.7087 87.7313 22.9767 86.7473 22.9767ZM91.7776 20.3127C91.7776 20.2887 91.7736 20.2727 91.7656 20.2647L91.7776 20.3127ZM93.2536 21.8007C93.3976 21.7847 93.5376 21.7527 93.6736 21.7047C93.9696 21.5607 94.2376 21.3407 94.4776 21.0447C94.4856 21.0447 94.4896 21.0407 94.4896 21.0327C94.6496 20.8327 94.7736 20.6247 94.8616 20.4087C94.9976 20.0887 95.0656 19.8407 95.0656 19.6647C95.0816 19.5927 95.0896 19.4847 95.0896 19.3407C95.0816 19.2447 95.0696 19.1567 95.0536 19.0767C95.0456 18.9887 95.0176 18.8727 94.9696 18.7287C94.9696 18.7207 94.9656 18.7167 94.9576 18.7167C94.9336 18.6527 94.8736 18.5487 94.7776 18.4047C94.7536 18.3807 94.7336 18.3527 94.7176 18.3207C94.5976 18.2087 94.5296 18.1487 94.5136 18.1407C94.4336 18.0767 94.3176 18.0087 94.1656 17.9367C94.1416 17.9287 94.1216 17.9167 94.1056 17.9007C93.8576 17.8047 93.5936 17.7487 93.3136 17.7327C93.2976 17.7407 93.2616 17.7447 93.2056 17.7447L92.9176 17.8287C92.8136 17.8687 92.7016 17.9407 92.5816 18.0447C92.4296 18.2047 92.2896 18.3727 92.1616 18.5487C91.9936 18.8767 91.8816 19.1607 91.8256 19.4007C91.8016 19.5607 91.7856 19.6487 91.7776 19.6647L91.7656 19.9767L91.7776 20.2887C91.7776 20.4407 91.8216 20.6207 91.9096 20.8287C91.9096 20.8447 91.9176 20.8687 91.9336 20.9007C92.0456 21.1487 92.1976 21.3487 92.3896 21.5007C92.4216 21.5167 92.4696 21.5487 92.5336 21.5967L92.7616 21.7047C92.9056 21.7687 93.0696 21.8007 93.2536 21.8007ZM95.0656 19.6647L95.0776 19.6047V19.6527L95.0656 19.6647ZM93.2176 22.9647C92.2896 22.9247 91.5696 22.5167 91.0576 21.7407C90.7456 21.1887 90.5896 20.6087 90.5896 20.0007C90.5896 18.9287 90.9536 18.0247 91.6816 17.2887C92.1776 16.8087 92.7496 16.5687 93.3976 16.5687C93.9736 16.5687 94.5376 16.7527 95.0896 17.1207L95.0536 16.7967C95.0536 16.6847 95.0816 16.5727 95.1376 16.4607C95.2176 16.2847 95.3776 16.1967 95.6176 16.1967C95.7216 16.1967 95.8336 16.2247 95.9536 16.2807C96.1936 16.4007 96.3376 17.2447 96.3856 18.8127C96.4176 20.1567 96.5416 21.1247 96.7576 21.7167H96.7696L96.8776 21.9327C96.9816 22.0367 97.0336 22.1807 97.0336 22.3647C97.0336 22.5087 96.9776 22.6367 96.8656 22.7487C96.7536 22.8607 96.6056 22.9167 96.4216 22.9167C96.2776 22.9167 96.1416 22.8527 96.0136 22.7247C95.7736 22.3967 95.6056 22.0327 95.5096 21.6327C95.2376 22.0247 94.9056 22.3447 94.5136 22.5927C94.1216 22.8327 93.6896 22.9567 93.2176 22.9647ZM103.609 25.1847C103.513 25.1847 103.401 25.1527 103.273 25.0887C103.153 25.0247 103.081 24.9167 103.057 24.7647C103.033 24.6127 103.021 24.4567 103.021 24.2967C103.021 24.1287 103.029 23.9847 103.045 23.8647L103.069 22.8087C101.045 22.8087 99.8487 22.8007 99.4807 22.7847L99.2047 22.7727L98.7487 22.7967C98.7407 22.8047 98.7247 22.8087 98.7007 22.8087C98.6847 22.8087 98.6647 22.8127 98.6407 22.8207C98.6407 22.8447 98.6367 22.8647 98.6287 22.8807L98.6167 23.9247C98.6087 24.1487 98.6047 24.3767 98.6047 24.6087C98.5967 24.7687 98.5367 24.9047 98.4247 25.0167C98.3207 25.1287 98.1887 25.1847 98.0287 25.1847C97.8687 25.1847 97.7327 25.1287 97.6207 25.0167C97.5167 24.9047 97.4607 24.7687 97.4527 24.6087L97.4647 23.9247L97.4767 23.7567V22.7487C97.4767 22.3807 97.5607 22.1167 97.7287 21.9567C97.8807 21.7807 98.0007 21.6047 98.0887 21.4287L98.1487 21.2727H98.1607L98.1727 21.2127C98.3487 20.7567 98.4887 20.2367 98.5927 19.6527L98.7127 18.9087L98.7727 18.2607C98.8047 17.2927 98.8887 16.7487 99.0247 16.6287C99.1207 16.4447 99.3207 16.3527 99.6247 16.3527C99.7047 16.3527 99.7927 16.3647 99.8887 16.3887C99.9367 16.3887 99.9847 16.3967 100.033 16.4127L100.549 16.4247C101.221 16.4247 101.729 16.4087 102.073 16.3767L102.289 16.3647C102.705 16.3647 102.989 16.4567 103.141 16.6407C103.301 16.8167 103.381 17.0207 103.381 17.2527V17.2887C103.349 17.4567 103.333 17.8727 103.333 18.5367C103.333 19.0967 103.349 19.7007 103.381 20.3487C103.405 20.7407 103.421 21.1727 103.429 21.6447C103.637 21.6447 103.809 21.7127 103.945 21.8487C104.137 22.1207 104.233 22.4207 104.233 22.7487L104.185 24.6087C104.185 24.7127 104.157 24.8087 104.101 24.8967C103.989 25.0887 103.825 25.1847 103.609 25.1847ZM101.341 21.6567C101.485 21.6487 101.633 21.6447 101.785 21.6447H102.277C102.269 21.1807 102.253 20.7527 102.229 20.3607C102.197 19.7367 102.181 19.1527 102.181 18.6087L102.193 17.6727C102.201 17.6247 102.205 17.5727 102.205 17.5167C101.909 17.5487 101.545 17.5647 101.113 17.5647L100.285 17.5767L100.021 17.5647L99.9727 17.5527H99.9607C99.9607 17.6487 99.9567 17.7407 99.9487 17.8287C99.9407 17.9167 99.9367 18.0087 99.9367 18.1047C99.9047 18.6807 99.8287 19.2967 99.7087 19.9527C99.5967 20.6167 99.4407 21.1767 99.2407 21.6327H99.6487C100.177 21.6487 100.741 21.6567 101.341 21.6567ZM106.028 20.3127C106.028 20.2887 106.024 20.2727 106.016 20.2647L106.028 20.3127ZM107.504 21.8007C107.648 21.7847 107.788 21.7527 107.924 21.7047C108.22 21.5607 108.488 21.3407 108.728 21.0447C108.736 21.0447 108.74 21.0407 108.74 21.0327C108.9 20.8327 109.024 20.6247 109.112 20.4087C109.248 20.0887 109.316 19.8407 109.316 19.6647C109.332 19.5927 109.34 19.4847 109.34 19.3407C109.332 19.2447 109.32 19.1567 109.304 19.0767C109.296 18.9887 109.268 18.8727 109.22 18.7287C109.22 18.7207 109.216 18.7167 109.208 18.7167C109.184 18.6527 109.124 18.5487 109.028 18.4047C109.004 18.3807 108.984 18.3527 108.968 18.3207C108.848 18.2087 108.78 18.1487 108.764 18.1407C108.684 18.0767 108.568 18.0087 108.416 17.9367C108.392 17.9287 108.372 17.9167 108.356 17.9007C108.108 17.8047 107.844 17.7487 107.564 17.7327C107.548 17.7407 107.512 17.7447 107.456 17.7447L107.168 17.8287C107.064 17.8687 106.952 17.9407 106.832 18.0447C106.68 18.2047 106.54 18.3727 106.412 18.5487C106.244 18.8767 106.132 19.1607 106.076 19.4007C106.052 19.5607 106.036 19.6487 106.028 19.6647L106.016 19.9767L106.028 20.2887C106.028 20.4407 106.072 20.6207 106.16 20.8287C106.16 20.8447 106.168 20.8687 106.184 20.9007C106.296 21.1487 106.448 21.3487 106.64 21.5007C106.672 21.5167 106.72 21.5487 106.784 21.5967L107.012 21.7047C107.156 21.7687 107.32 21.8007 107.504 21.8007ZM109.316 19.6647L109.328 19.6047V19.6527L109.316 19.6647ZM107.468 22.9647C106.54 22.9247 105.82 22.5167 105.308 21.7407C104.996 21.1887 104.84 20.6087 104.84 20.0007C104.84 18.9287 105.204 18.0247 105.932 17.2887C106.428 16.8087 107 16.5687 107.648 16.5687C108.224 16.5687 108.788 16.7527 109.34 17.1207L109.304 16.7967C109.304 16.6847 109.332 16.5727 109.388 16.4607C109.468 16.2847 109.628 16.1967 109.868 16.1967C109.972 16.1967 110.084 16.2247 110.204 16.2807C110.444 16.4007 110.588 17.2447 110.636 18.8127C110.668 20.1567 110.792 21.1247 111.008 21.7167H111.02L111.128 21.9327C111.232 22.0367 111.284 22.1807 111.284 22.3647C111.284 22.5087 111.228 22.6367 111.116 22.7487C111.004 22.8607 110.856 22.9167 110.672 22.9167C110.528 22.9167 110.392 22.8527 110.264 22.7247C110.024 22.3967 109.856 22.0327 109.76 21.6327C109.488 22.0247 109.156 22.3447 108.764 22.5927C108.372 22.8327 107.94 22.9567 107.468 22.9647ZM112.531 22.8807C112.475 22.8807 112.419 22.8727 112.363 22.8567C112.083 22.7767 111.943 22.5887 111.943 22.2927L111.955 22.1487C112.219 21.0367 112.411 20.0167 112.531 19.0887C112.547 19.0167 112.555 18.9447 112.555 18.8727C112.643 18.2487 112.707 17.5807 112.747 16.8687C112.771 16.5887 112.915 16.4047 113.179 16.3167C113.227 16.3007 113.275 16.2927 113.323 16.2927C113.483 16.2927 113.619 16.3487 113.731 16.4607C113.907 16.6607 114.035 16.8847 114.115 17.1327C114.131 17.1727 114.171 17.2647 114.235 17.4087C114.307 17.5447 114.375 17.6887 114.439 17.8407C114.511 17.9847 114.567 18.0927 114.607 18.1647C114.807 18.5007 114.983 18.8647 115.135 19.2567C115.167 19.3447 115.311 19.6407 115.567 20.1447L115.579 20.1687C115.803 19.7047 116.015 19.2367 116.215 18.7647C116.375 18.3807 116.559 18.0167 116.767 17.6727C116.895 17.4807 117.063 17.1767 117.271 16.7607C117.375 16.4807 117.559 16.3407 117.823 16.3407C117.951 16.3407 118.067 16.3807 118.171 16.4607C118.275 16.5327 118.347 16.6327 118.387 16.7607C118.667 17.8007 118.891 18.8647 119.059 19.9527C119.107 20.2567 119.159 20.5567 119.215 20.8527C119.279 21.0847 119.331 21.3087 119.371 21.5247L119.383 21.6207L119.539 22.2927C119.539 22.4927 119.447 22.6527 119.263 22.7727C119.167 22.8287 119.071 22.8567 118.975 22.8567C118.567 22.8567 118.331 22.5287 118.267 21.8727C118.243 21.7367 118.211 21.6007 118.171 21.4647L118.123 21.2007C118.059 20.8967 117.999 20.5847 117.943 20.2647C117.847 19.6727 117.739 19.0847 117.619 18.5007C117.507 18.6767 117.399 18.8927 117.295 19.1487C117.279 19.2047 117.259 19.2567 117.235 19.3047C116.883 20.1207 116.503 20.9247 116.095 21.7167C115.991 21.9007 115.831 21.9927 115.615 21.9927C115.271 21.9927 115.015 21.7647 114.847 21.3087C114.767 21.1247 114.683 20.9447 114.595 20.7687C114.475 20.5447 114.363 20.3247 114.259 20.1087C114.115 19.8047 114.027 19.5967 113.995 19.4847L113.707 18.9087C113.395 21.3487 113.091 22.6487 112.795 22.8087C112.707 22.8567 112.619 22.8807 112.531 22.8807ZM126.103 22.9767C125.959 22.9767 125.827 22.9207 125.707 22.8087C125.587 22.7047 125.527 22.5767 125.527 22.4247V22.4007C125.591 21.5367 125.623 20.6727 125.623 19.8087L125.587 17.4207H124.039C123.879 17.4127 123.743 17.3527 123.631 17.2407C123.519 17.1287 123.463 16.9967 123.463 16.8447C123.463 16.6847 123.519 16.5487 123.631 16.4367C123.743 16.3247 123.879 16.2687 124.039 16.2687L126.475 16.2567L126.727 16.2447C126.887 16.2447 127.227 16.2447 127.747 16.2447C128.267 16.2447 128.583 16.2727 128.695 16.3287C128.871 16.4247 128.959 16.5847 128.959 16.8087C128.959 16.9047 128.927 17.0127 128.863 17.1327C128.799 17.2527 128.691 17.3327 128.539 17.3727C128.307 17.4047 128.071 17.4207 127.831 17.4207L126.739 17.4087L126.775 19.8087C126.775 21.6007 126.687 22.6007 126.511 22.8087C126.407 22.9207 126.271 22.9767 126.103 22.9767ZM133.555 22.9767C132.523 22.9767 131.635 22.5887 130.891 21.8127C130.251 21.0927 129.931 20.2527 129.931 19.2927C129.979 18.2687 130.415 17.4607 131.239 16.8687C131.887 16.4527 132.575 16.2447 133.303 16.2447C134.071 16.2447 134.719 16.4527 135.247 16.8687C135.759 17.3007 136.075 17.8727 136.195 18.5847C136.227 18.6887 136.243 18.7927 136.243 18.8967C136.243 19.8087 135.183 20.2647 133.063 20.2647C132.455 20.2647 131.855 20.2487 131.263 20.2167L131.287 20.3007L131.371 20.4687L131.515 20.7207L131.623 20.8647V20.8767C131.759 21.0287 131.911 21.1767 132.079 21.3207L132.139 21.3687L132.559 21.6087C132.567 21.6087 132.579 21.6127 132.595 21.6207C132.611 21.6287 132.627 21.6367 132.643 21.6447C132.659 21.6447 132.671 21.6487 132.679 21.6567C132.791 21.6967 132.919 21.7327 133.063 21.7647C133.103 21.7647 133.131 21.7687 133.147 21.7767L133.507 21.8007C133.659 21.8007 133.811 21.7927 133.963 21.7767C134.003 21.7767 134.023 21.7727 134.023 21.7647C134.279 21.7647 134.695 21.6487 135.271 21.4167C135.327 21.3927 135.387 21.3807 135.451 21.3807C135.539 21.3807 135.639 21.4167 135.751 21.4887C135.927 21.6007 136.015 21.7647 136.015 21.9807C136.015 22.2367 135.871 22.4247 135.583 22.5447C134.871 22.8327 134.195 22.9767 133.555 22.9767ZM132.823 19.0767C133.303 19.0767 133.783 19.0567 134.263 19.0167C134.295 19.0087 134.331 19.0047 134.371 19.0047C134.371 18.9967 134.379 18.9927 134.395 18.9927C134.643 18.9687 134.859 18.9167 135.043 18.8367H135.055C135.055 18.7487 135.015 18.5967 134.935 18.3807C134.935 18.3567 134.927 18.3367 134.911 18.3207V18.3087C134.839 18.1647 134.775 18.0607 134.719 17.9967V17.9847C134.655 17.9047 134.583 17.8327 134.503 17.7687L134.479 17.7447C134.375 17.6647 134.271 17.6047 134.167 17.5647L134.107 17.5407C133.971 17.4847 133.835 17.4487 133.699 17.4327L133.315 17.4087C133.139 17.4087 133.011 17.4167 132.931 17.4327L132.559 17.5287C132.327 17.5767 132.091 17.6887 131.851 17.8647C131.827 17.8647 131.803 17.8847 131.779 17.9247H131.767C131.711 17.9727 131.659 18.0247 131.611 18.0807L131.467 18.2247C131.371 18.3687 131.299 18.4887 131.251 18.5847V18.5967C131.251 18.6047 131.247 18.6087 131.239 18.6087C131.207 18.6887 131.183 18.7687 131.167 18.8487C131.151 18.9207 131.135 18.9847 131.119 19.0407C131.783 19.0647 132.351 19.0767 132.823 19.0767ZM139.837 21.7167C140.261 21.7167 140.661 21.6567 141.037 21.5367L141.337 21.3687C141.625 21.1127 141.789 20.7967 141.829 20.4207L141.805 19.9767C141.677 19.3527 141.461 18.9167 141.157 18.6687C140.909 18.4847 140.553 18.3287 140.089 18.2007C139.897 18.1687 139.765 18.1527 139.693 18.1527C139.141 18.1527 138.745 18.2287 138.505 18.3807C138.457 18.4287 138.429 18.4527 138.421 18.4527C138.413 18.4527 138.409 19.1367 138.409 20.5047C138.409 20.8087 138.453 21.0927 138.541 21.3567C138.549 21.3567 138.553 21.3607 138.553 21.3687C138.593 21.4647 138.649 21.5487 138.721 21.6207C138.753 21.6367 138.905 21.6567 139.177 21.6807C139.393 21.7047 139.613 21.7167 139.837 21.7167ZM140.065 22.8807L139.801 22.8687L139.729 22.8807C139.625 22.8807 139.385 22.8527 139.009 22.7967C137.865 22.7967 137.293 21.9687 137.293 20.3127C137.293 19.9687 137.297 19.6247 137.305 19.2807C137.321 18.9287 137.329 18.5127 137.329 18.0327C137.329 17.4327 137.341 16.7487 137.365 15.9807C137.365 15.5167 137.561 15.1727 137.953 14.9487C138.505 14.7167 139.077 14.6007 139.669 14.6007L141.253 14.4807C141.421 14.4807 141.665 14.3367 141.985 14.0487C142.073 13.8807 142.217 13.7967 142.417 13.7967C142.585 13.7967 142.725 13.8567 142.837 13.9767C142.957 14.0887 143.017 14.2127 143.017 14.3487C143.017 14.5407 142.937 14.7167 142.777 14.8767C142.777 14.8847 142.713 14.9447 142.585 15.0567C142.137 15.4567 141.609 15.6567 141.001 15.6567L140.077 15.7527C139.477 15.7527 138.977 15.8087 138.577 15.9207C138.577 15.9287 138.569 15.9367 138.553 15.9447C138.545 15.9447 138.533 15.9487 138.517 15.9567C138.517 16.1967 138.497 16.5967 138.457 17.1567C138.737 17.0607 139.161 17.0127 139.729 17.0127C139.921 17.0127 140.109 17.0287 140.293 17.0607C141.397 17.3007 142.161 17.8647 142.585 18.7527C142.857 19.2727 142.993 19.7447 142.993 20.1687C142.993 20.6567 142.877 21.1207 142.645 21.5607C142.149 22.4407 141.289 22.8807 140.065 22.8807ZM147.312 22.9767C146.28 22.9767 145.392 22.5887 144.648 21.8127C144.008 21.0927 143.688 20.2527 143.688 19.2927C143.736 18.2687 144.172 17.4607 144.996 16.8687C145.644 16.4527 146.332 16.2447 147.06 16.2447C147.828 16.2447 148.476 16.4527 149.004 16.8687C149.516 17.3007 149.832 17.8727 149.952 18.5847C149.984 18.6887 150 18.7927 150 18.8967C150 19.8087 148.94 20.2647 146.82 20.2647C146.212 20.2647 145.612 20.2487 145.02 20.2167L145.044 20.3007L145.128 20.4687L145.272 20.7207L145.38 20.8647V20.8767C145.516 21.0287 145.668 21.1767 145.836 21.3207L145.896 21.3687L146.316 21.6087C146.324 21.6087 146.336 21.6127 146.352 21.6207C146.368 21.6287 146.384 21.6367 146.4 21.6447C146.416 21.6447 146.428 21.6487 146.436 21.6567C146.548 21.6967 146.676 21.7327 146.82 21.7647C146.86 21.7647 146.888 21.7687 146.904 21.7767L147.264 21.8007C147.416 21.8007 147.568 21.7927 147.72 21.7767C147.76 21.7767 147.78 21.7727 147.78 21.7647C148.036 21.7647 148.452 21.6487 149.028 21.4167C149.084 21.3927 149.144 21.3807 149.208 21.3807C149.296 21.3807 149.396 21.4167 149.508 21.4887C149.684 21.6007 149.772 21.7647 149.772 21.9807C149.772 22.2367 149.628 22.4247 149.34 22.5447C148.628 22.8327 147.952 22.9767 147.312 22.9767ZM146.58 19.0767C147.06 19.0767 147.54 19.0567 148.02 19.0167C148.052 19.0087 148.088 19.0047 148.128 19.0047C148.128 18.9967 148.136 18.9927 148.152 18.9927C148.4 18.9687 148.616 18.9167 148.8 18.8367H148.812C148.812 18.7487 148.772 18.5967 148.692 18.3807C148.692 18.3567 148.684 18.3367 148.668 18.3207V18.3087C148.596 18.1647 148.532 18.0607 148.476 17.9967V17.9847C148.412 17.9047 148.34 17.8327 148.26 17.7687L148.236 17.7447C148.132 17.6647 148.028 17.6047 147.924 17.5647L147.864 17.5407C147.728 17.4847 147.592 17.4487 147.456 17.4327L147.072 17.4087C146.896 17.4087 146.768 17.4167 146.688 17.4327L146.316 17.5287C146.084 17.5767 145.848 17.6887 145.608 17.8647C145.584 17.8647 145.56 17.8847 145.536 17.9247H145.524C145.468 17.9727 145.416 18.0247 145.368 18.0807L145.224 18.2247C145.128 18.3687 145.056 18.4887 145.008 18.5847V18.5967C145.008 18.6047 145.004 18.6087 144.996 18.6087C144.964 18.6887 144.94 18.7687 144.924 18.8487C144.908 18.9207 144.892 18.9847 144.876 19.0407C145.54 19.0647 146.108 19.0767 146.58 19.0767ZM20.2103 36.8807C20.0503 36.8807 19.9143 36.8247 19.8023 36.7127C19.6903 36.6007 19.6343 36.4647 19.6343 36.3047C19.6343 35.5687 19.6423 34.8287 19.6583 34.0847L19.6703 32.0687L19.6583 31.5407C19.6343 31.4687 19.6223 31.3487 19.6223 31.1807C19.6223 30.6527 19.8343 30.3407 20.2583 30.2447C20.4583 30.2047 20.6543 30.1847 20.8463 30.1847L21.4103 30.2207C21.6343 30.2367 21.8383 30.2447 22.0223 30.2447C22.2783 30.2447 22.4663 30.2407 22.5863 30.2327H23.2943C23.8063 30.2167 24.3183 30.2087 24.8303 30.2087C24.9983 30.2167 25.1343 30.2807 25.2383 30.4007C25.3503 30.5207 25.4063 30.7087 25.4063 30.9647C25.4063 31.0767 25.3983 31.1927 25.3823 31.3127C25.3663 31.4327 25.3583 31.6647 25.3583 32.0087C25.3583 33.4887 25.3543 34.4647 25.3463 34.9367L25.3343 35.3807C25.3343 35.6847 25.3503 35.9887 25.3823 36.2927V36.3167C25.3823 36.4687 25.3183 36.6007 25.1903 36.7127C25.0703 36.8167 24.9423 36.8687 24.8063 36.8687C24.6463 36.8687 24.5103 36.8127 24.3983 36.7007C24.2863 36.5807 24.2263 36.4447 24.2183 36.2927C24.1863 36.0127 24.1703 35.7327 24.1703 35.4527C24.1703 35.2687 24.1783 35.0807 24.1943 34.8887C24.2023 34.4327 24.2063 33.7327 24.2063 32.7887C24.2063 32.0607 24.2143 31.5927 24.2303 31.3847V31.3727L23.1983 31.3847C23.0463 31.3847 22.8983 31.3887 22.7543 31.3967L22.2263 31.4087C21.9623 31.4087 21.6983 31.3967 21.4343 31.3727C21.2183 31.3487 21.0023 31.3367 20.7863 31.3367C20.8183 31.6007 20.8383 31.8727 20.8463 32.1527L20.8223 32.8367L20.8103 33.9887C20.7943 34.7647 20.7863 35.5367 20.7863 36.3047C20.7783 36.4647 20.7183 36.6007 20.6063 36.7127C20.4943 36.8247 20.3623 36.8807 20.2103 36.8807ZM27.4885 34.3127C27.4885 34.2887 27.4845 34.2727 27.4765 34.2647L27.4885 34.3127ZM28.9645 35.8007C29.1085 35.7847 29.2485 35.7527 29.3845 35.7047C29.6805 35.5607 29.9485 35.3407 30.1885 35.0447C30.1965 35.0447 30.2005 35.0407 30.2005 35.0327C30.3605 34.8327 30.4845 34.6247 30.5725 34.4087C30.7085 34.0887 30.7765 33.8407 30.7765 33.6647C30.7925 33.5927 30.8005 33.4847 30.8005 33.3407C30.7925 33.2447 30.7805 33.1567 30.7645 33.0767C30.7565 32.9887 30.7285 32.8727 30.6805 32.7287C30.6805 32.7207 30.6765 32.7167 30.6685 32.7167C30.6445 32.6527 30.5845 32.5487 30.4885 32.4047C30.4645 32.3807 30.4445 32.3527 30.4285 32.3207C30.3085 32.2087 30.2405 32.1487 30.2245 32.1407C30.1445 32.0767 30.0285 32.0087 29.8765 31.9367C29.8525 31.9287 29.8325 31.9167 29.8165 31.9007C29.5685 31.8047 29.3045 31.7487 29.0245 31.7327C29.0085 31.7407 28.9725 31.7447 28.9165 31.7447L28.6285 31.8287C28.5245 31.8687 28.4125 31.9407 28.2925 32.0447C28.1405 32.2047 28.0005 32.3727 27.8725 32.5487C27.7045 32.8767 27.5925 33.1607 27.5365 33.4007C27.5125 33.5607 27.4965 33.6487 27.4885 33.6647L27.4765 33.9767L27.4885 34.2887C27.4885 34.4407 27.5325 34.6207 27.6205 34.8287C27.6205 34.8447 27.6285 34.8687 27.6445 34.9007C27.7565 35.1487 27.9085 35.3487 28.1005 35.5007C28.1325 35.5167 28.1805 35.5487 28.2445 35.5967L28.4725 35.7047C28.6165 35.7687 28.7805 35.8007 28.9645 35.8007ZM30.7765 33.6647L30.7885 33.6047V33.6527L30.7765 33.6647ZM28.9285 36.9647C28.0005 36.9247 27.2805 36.5167 26.7685 35.7407C26.4565 35.1887 26.3005 34.6087 26.3005 34.0007C26.3005 32.9287 26.6645 32.0247 27.3925 31.2887C27.8885 30.8087 28.4605 30.5687 29.1085 30.5687C29.6845 30.5687 30.2485 30.7527 30.8005 31.1207L30.7645 30.7967C30.7645 30.6847 30.7925 30.5727 30.8485 30.4607C30.9285 30.2847 31.0885 30.1967 31.3285 30.1967C31.4325 30.1967 31.5445 30.2247 31.6645 30.2807C31.9045 30.4007 32.0485 31.2447 32.0965 32.8127C32.1285 34.1567 32.2525 35.1247 32.4685 35.7167H32.4805L32.5885 35.9327C32.6925 36.0367 32.7445 36.1807 32.7445 36.3647C32.7445 36.5087 32.6885 36.6367 32.5765 36.7487C32.4645 36.8607 32.3165 36.9167 32.1325 36.9167C31.9885 36.9167 31.8525 36.8527 31.7245 36.7247C31.4845 36.3967 31.3165 36.0327 31.2205 35.6327C30.9485 36.0247 30.6165 36.3447 30.2245 36.5927C29.8325 36.8327 29.4005 36.9567 28.9285 36.9647ZM34.7236 31.6127V31.8407C34.7236 33.1447 34.7836 34.2807 34.9036 35.2487H34.9156C35.0356 35.2967 35.2236 35.3447 35.4796 35.3927H35.5276C35.6156 35.4087 35.7236 35.4167 35.8516 35.4167L36.1636 35.4047C36.1716 35.4047 36.1836 35.4047 36.1996 35.4047C36.2236 35.3967 36.2436 35.3927 36.2596 35.3927C36.2756 35.3927 36.2876 35.3887 36.2956 35.3807C36.5916 35.3407 36.8196 35.2807 36.9796 35.2007L37.0756 35.1647C37.3476 35.0447 37.5276 34.9407 37.6156 34.8527C37.6236 34.8527 37.6316 34.8487 37.6396 34.8407C37.6556 34.8247 37.6716 34.8127 37.6876 34.8047C37.8156 34.7007 37.9356 34.5807 38.0476 34.4447L38.0596 34.4207C38.0996 34.3807 38.1596 34.2887 38.2396 34.1447L38.3356 33.9647V33.9407C38.3996 33.7887 38.4436 33.6327 38.4676 33.4727L38.4796 33.4007C38.4876 33.2887 38.4916 33.1727 38.4916 33.0527C38.4916 32.9407 38.4716 32.8327 38.4316 32.7287C38.4316 32.6727 38.3876 32.5847 38.2996 32.4647V32.4527C38.2116 32.3647 38.1476 32.3047 38.1076 32.2727C38.1076 32.2647 38.1036 32.2607 38.0956 32.2607C38.0876 32.2607 38.0836 32.2567 38.0836 32.2487C37.9636 32.1687 37.8236 32.0887 37.6636 32.0087H37.6516C37.4436 31.9287 37.1436 31.8447 36.7516 31.7567L36.4516 31.7087C35.8756 31.6447 35.2996 31.6127 34.7236 31.6127ZM34.6756 30.4367C36.3716 30.4367 37.6476 30.6687 38.5036 31.1327C38.9196 31.3567 39.2316 31.6807 39.4396 32.1047C39.5916 32.4487 39.6676 32.8087 39.6676 33.1847C39.6676 33.8727 39.4556 34.5007 39.0316 35.0687C38.2396 36.0767 37.1836 36.5807 35.8636 36.5807C35.5676 36.5807 35.2756 36.5487 34.9876 36.4847C35.0116 36.8927 35.0236 37.2967 35.0236 37.6967C35.0236 38.0407 35.0156 38.3807 34.9996 38.7167C34.9836 38.8847 34.9236 39.0247 34.8196 39.1367C34.7156 39.2487 34.5796 39.3047 34.4116 39.3047C34.2596 39.3047 34.1236 39.2487 34.0036 39.1367C33.8836 39.0247 33.8236 38.8847 33.8236 38.7167C33.8396 38.3807 33.8476 38.0487 33.8476 37.7207C33.8476 36.7687 33.7956 35.8247 33.6916 34.8887C33.5956 33.9527 33.5476 33.0167 33.5476 32.0807C33.5476 31.7287 33.5556 31.3767 33.5716 31.0247C33.5876 30.8647 33.6476 30.7287 33.7516 30.6167C33.8556 30.4967 33.9916 30.4367 34.1596 30.4367L34.2316 30.4487C34.2796 30.4407 34.4276 30.4367 34.6756 30.4367ZM42.4153 38.0687L42.4513 38.0567H42.4273C42.5393 38.0247 42.6753 37.9527 42.8353 37.8407C43.0993 37.6567 43.3233 37.4447 43.5073 37.2047C43.5153 37.2047 43.5193 37.2007 43.5193 37.1927C43.5193 37.1847 43.5233 37.1767 43.5313 37.1687C43.6033 37.0967 43.6953 36.9567 43.8073 36.7487C43.1273 36.4287 42.5513 35.7887 42.0793 34.8287C41.7753 34.2127 41.4393 33.3727 41.0713 32.3087C40.9113 31.8367 40.7993 31.5287 40.7353 31.3847C40.6793 31.2807 40.6513 31.1767 40.6513 31.0727C40.6513 30.8567 40.7473 30.6887 40.9393 30.5687C41.0353 30.5207 41.1353 30.4967 41.2393 30.4967C41.4793 30.4967 41.6473 30.5927 41.7433 30.7847C41.9113 31.1847 42.0673 31.5927 42.2113 32.0087C42.6673 33.3767 43.1113 34.3727 43.5433 34.9967C43.5673 35.0447 43.5993 35.0847 43.6393 35.1167L43.6513 35.1527C43.7153 35.2247 43.7753 35.2887 43.8313 35.3447C43.8953 35.4007 43.9513 35.4527 43.9993 35.5007C44.0313 35.5167 44.0553 35.5327 44.0713 35.5487C44.1273 35.5887 44.1993 35.6287 44.2873 35.6687C44.5033 35.1327 44.6873 34.3487 44.8393 33.3167L44.8633 33.1367C44.9593 32.3847 45.0233 31.6287 45.0553 30.8687C45.0713 30.7007 45.1313 30.5607 45.2353 30.4487C45.3393 30.3367 45.4753 30.2807 45.6433 30.2807C45.7953 30.2807 45.9313 30.3367 46.0513 30.4487C46.1713 30.5607 46.2313 30.7007 46.2313 30.8687C46.0873 34.7407 45.2673 37.3207 43.7713 38.6087C43.1233 39.1287 42.3753 39.3887 41.5273 39.3887C40.9593 39.3887 40.6753 39.1887 40.6753 38.7887C40.6753 38.6367 40.7313 38.5007 40.8433 38.3807C40.9553 38.2607 41.0953 38.2007 41.2633 38.2007C41.3673 38.2087 41.5273 38.2127 41.7433 38.2127C41.9433 38.1887 42.1673 38.1407 42.4153 38.0687ZM51.0093 32.9927L52.3773 32.9687C52.8973 32.9527 53.3413 32.9047 53.7093 32.8247C54.3013 32.5687 54.5973 32.2327 54.5973 31.8167C54.5973 31.7127 54.5853 31.6287 54.5613 31.5647C54.5053 31.3327 54.0893 31.2167 53.3133 31.2167C52.6253 31.2167 52.1333 31.2207 51.8373 31.2287C51.6533 31.2367 51.3693 31.2407 50.9853 31.2407L51.0093 32.9927ZM51.4173 35.8487C52.0813 35.8487 52.5893 35.8327 52.9413 35.8007C53.4773 35.8007 53.9253 35.7407 54.2853 35.6207C54.5413 35.4927 54.6813 35.4167 54.7053 35.3927C54.8333 35.2807 54.9053 35.1247 54.9213 34.9247C54.9213 34.8447 54.8893 34.7407 54.8253 34.6127C54.7533 34.4367 54.4013 34.2967 53.7693 34.1927C53.7613 34.1927 53.7573 34.1887 53.7573 34.1807C53.3973 34.1407 52.9093 34.1207 52.2933 34.1207C51.9653 34.1367 51.5413 34.1447 51.0213 34.1447L51.0333 35.8487H51.4173ZM51.4053 37.0007H50.5293C50.3773 37.0007 50.2453 36.9447 50.1333 36.8327C50.0213 36.7207 49.9613 36.5847 49.9533 36.4247C49.9053 36.3367 49.8813 36.2407 49.8813 36.1367C49.8813 35.2487 49.8733 34.3447 49.8573 33.4247C49.8413 32.4967 49.8333 31.5487 49.8333 30.5807C49.8413 30.4207 49.8973 30.2847 50.0013 30.1727C50.1133 30.0607 50.2493 30.0047 50.4093 30.0047C50.5293 30.0047 50.6373 30.0407 50.7333 30.1127C50.8933 30.0967 51.0773 30.0887 51.2853 30.0887C51.5333 30.0887 51.7573 30.0847 51.9573 30.0767C52.1573 30.0687 52.7013 30.0647 53.5893 30.0647C54.3653 30.0647 54.9453 30.2647 55.3293 30.6647C55.6093 30.9927 55.7493 31.3807 55.7493 31.8287C55.7493 32.4527 55.4893 32.9487 54.9693 33.3167C55.7053 33.6287 56.0733 34.1767 56.0733 34.9607C56.0733 35.1527 56.0373 35.3407 55.9653 35.5247C55.8613 35.8207 55.6933 36.0647 55.4613 36.2567C54.8133 36.7447 53.9493 36.9887 52.8693 36.9887L52.4733 36.9767C52.0813 36.9927 51.7253 37.0007 51.4053 37.0007ZM60.0442 37.0607C59.5722 37.0607 59.1162 36.9367 58.6762 36.6887C58.0842 36.3047 57.6522 35.7807 57.3802 35.1167C57.1402 34.5407 57.0202 33.9487 57.0202 33.3407C57.0202 32.5087 57.2242 31.7967 57.6322 31.2047C58.1042 30.5567 58.7562 30.2327 59.5882 30.2327C60.2682 30.2327 60.9082 30.4007 61.5082 30.7367C62.3002 31.1927 62.8722 31.8367 63.2242 32.6687C63.4002 33.0687 63.4882 33.4687 63.4882 33.8687C63.4882 34.3087 63.3842 34.7527 63.1762 35.2007C62.9522 35.6407 62.6322 36.0087 62.2162 36.3047C61.8082 36.5927 61.3682 36.8007 60.8962 36.9287C60.6082 37.0167 60.3242 37.0607 60.0442 37.0607ZM59.9242 35.8847C60.0522 35.8847 60.1602 35.8807 60.2482 35.8727L60.3682 35.8607C60.9122 35.7087 61.3282 35.5167 61.6162 35.2847C61.7122 35.2127 61.8282 35.1007 61.9642 34.9487C61.9642 34.9407 61.9682 34.9367 61.9762 34.9367C62.1442 34.7047 62.2522 34.4527 62.3002 34.1807C62.3002 34.1567 62.3042 34.1447 62.3122 34.1447L62.3242 33.9527C62.2922 33.5687 62.2362 33.2927 62.1562 33.1247V33.1007L62.1442 33.0887C62.0402 32.8567 61.9282 32.6647 61.8082 32.5127C61.8082 32.5047 61.8042 32.5007 61.7962 32.5007C61.4602 32.0767 61.0682 31.7767 60.6202 31.6007C60.3162 31.4807 60.0922 31.4207 59.9482 31.4207C59.8522 31.4047 59.7002 31.3967 59.4922 31.3967C59.3962 31.3967 59.2522 31.4247 59.0602 31.4807V31.4927C58.9882 31.5247 58.9282 31.5607 58.8802 31.6007C58.8402 31.6327 58.8122 31.6487 58.7962 31.6487L58.5922 31.8647C58.4722 31.9847 58.3522 32.2927 58.2322 32.7887C58.2082 32.9567 58.1962 33.1367 58.1962 33.3287C58.1962 33.5447 58.2242 33.8047 58.2802 34.1087C58.4002 34.5727 58.5802 34.9607 58.8202 35.2727C59.2122 35.6727 59.5482 35.8727 59.8282 35.8727L59.9242 35.8847ZM65.1049 36.8807C64.9449 36.8807 64.8089 36.8247 64.6969 36.7127C64.5849 36.6007 64.5289 36.4647 64.5289 36.3047C64.5289 35.5687 64.5369 34.8287 64.5529 34.0847L64.5649 32.0687L64.5529 31.5407C64.5289 31.4687 64.5169 31.3487 64.5169 31.1807C64.5169 30.6527 64.7289 30.3407 65.1529 30.2447C65.3529 30.2047 65.5489 30.1847 65.7409 30.1847L66.3049 30.2207C66.5289 30.2367 66.7329 30.2447 66.9169 30.2447C67.1729 30.2447 67.3609 30.2407 67.4809 30.2327H68.1889C68.7009 30.2167 69.2129 30.2087 69.7249 30.2087C69.8929 30.2167 70.0289 30.2807 70.1329 30.4007C70.2449 30.5207 70.3009 30.7087 70.3009 30.9647C70.3009 31.0767 70.2929 31.1927 70.2769 31.3127C70.2609 31.4327 70.2529 31.6647 70.2529 32.0087C70.2529 33.4887 70.2489 34.4647 70.2409 34.9367L70.2289 35.3807C70.2289 35.6847 70.2449 35.9887 70.2769 36.2927V36.3167C70.2769 36.4687 70.2129 36.6007 70.0849 36.7127C69.9649 36.8167 69.8369 36.8687 69.7009 36.8687C69.5409 36.8687 69.4049 36.8127 69.2929 36.7007C69.1809 36.5807 69.1209 36.4447 69.1129 36.2927C69.0809 36.0127 69.0649 35.7327 69.0649 35.4527C69.0649 35.2687 69.0729 35.0807 69.0889 34.8887C69.0969 34.4327 69.1009 33.7327 69.1009 32.7887C69.1009 32.0607 69.1089 31.5927 69.1249 31.3847V31.3727L68.0929 31.3847C67.9409 31.3847 67.7929 31.3887 67.6489 31.3967L67.1209 31.4087C66.8569 31.4087 66.5929 31.3967 66.3289 31.3727C66.1129 31.3487 65.8969 31.3367 65.6809 31.3367C65.7129 31.6007 65.7329 31.8727 65.7409 32.1527L65.7169 32.8367L65.7049 33.9887C65.6889 34.7647 65.6809 35.5367 65.6809 36.3047C65.6729 36.4647 65.6129 36.6007 65.5009 36.7127C65.3889 36.8247 65.2569 36.8807 65.1049 36.8807ZM73.0791 31.6127V31.8407C73.0791 33.1447 73.1391 34.2807 73.2591 35.2487H73.2711C73.3911 35.2967 73.5791 35.3447 73.8351 35.3927H73.8831C73.9711 35.4087 74.0791 35.4167 74.2071 35.4167L74.5191 35.4047C74.5271 35.4047 74.5391 35.4047 74.5551 35.4047C74.5791 35.3967 74.5991 35.3927 74.6151 35.3927C74.6311 35.3927 74.6431 35.3887 74.6511 35.3807C74.9471 35.3407 75.1751 35.2807 75.3351 35.2007L75.4311 35.1647C75.7031 35.0447 75.8831 34.9407 75.9711 34.8527C75.9791 34.8527 75.9871 34.8487 75.9951 34.8407C76.0111 34.8247 76.0271 34.8127 76.0431 34.8047C76.1711 34.7007 76.2911 34.5807 76.4031 34.4447L76.4151 34.4207C76.4551 34.3807 76.5151 34.2887 76.5951 34.1447L76.6911 33.9647V33.9407C76.7551 33.7887 76.7991 33.6327 76.8231 33.4727L76.8351 33.4007C76.8431 33.2887 76.8471 33.1727 76.8471 33.0527C76.8471 32.9407 76.8271 32.8327 76.7871 32.7287C76.7871 32.6727 76.7431 32.5847 76.6551 32.4647V32.4527C76.5671 32.3647 76.5031 32.3047 76.4631 32.2727C76.4631 32.2647 76.4591 32.2607 76.4511 32.2607C76.4431 32.2607 76.4391 32.2567 76.4391 32.2487C76.3191 32.1687 76.1791 32.0887 76.0191 32.0087H76.0071C75.7991 31.9287 75.4991 31.8447 75.1071 31.7567L74.8071 31.7087C74.2311 31.6447 73.6551 31.6127 73.0791 31.6127ZM73.0311 30.4367C74.7271 30.4367 76.0031 30.6687 76.8591 31.1327C77.2751 31.3567 77.5871 31.6807 77.7951 32.1047C77.9471 32.4487 78.0231 32.8087 78.0231 33.1847C78.0231 33.8727 77.8111 34.5007 77.3871 35.0687C76.5951 36.0767 75.5391 36.5807 74.2191 36.5807C73.9231 36.5807 73.6311 36.5487 73.3431 36.4847C73.3671 36.8927 73.3791 37.2967 73.3791 37.6967C73.3791 38.0407 73.3711 38.3807 73.3551 38.7167C73.3391 38.8847 73.2791 39.0247 73.1751 39.1367C73.0711 39.2487 72.9351 39.3047 72.7671 39.3047C72.6151 39.3047 72.4791 39.2487 72.3591 39.1367C72.2391 39.0247 72.1791 38.8847 72.1791 38.7167C72.1951 38.3807 72.2031 38.0487 72.2031 37.7207C72.2031 36.7687 72.1511 35.8247 72.0471 34.8887C71.9511 33.9527 71.9031 33.0167 71.9031 32.0807C71.9031 31.7287 71.9111 31.3767 71.9271 31.0247C71.9431 30.8647 72.0031 30.7287 72.1071 30.6167C72.2111 30.4967 72.3471 30.4367 72.5151 30.4367L72.5871 30.4487C72.6351 30.4407 72.7831 30.4367 73.0311 30.4367ZM81.9348 37.0607C81.4628 37.0607 81.0068 36.9367 80.5668 36.6887C79.9748 36.3047 79.5428 35.7807 79.2708 35.1167C79.0308 34.5407 78.9108 33.9487 78.9108 33.3407C78.9108 32.5087 79.1148 31.7967 79.5228 31.2047C79.9948 30.5567 80.6468 30.2327 81.4788 30.2327C82.1588 30.2327 82.7988 30.4007 83.3988 30.7367C84.1908 31.1927 84.7628 31.8367 85.1148 32.6687C85.2908 33.0687 85.3788 33.4687 85.3788 33.8687C85.3788 34.3087 85.2748 34.7527 85.0668 35.2007C84.8428 35.6407 84.5228 36.0087 84.1068 36.3047C83.6988 36.5927 83.2588 36.8007 82.7868 36.9287C82.4988 37.0167 82.2148 37.0607 81.9348 37.0607ZM81.8148 35.8847C81.9428 35.8847 82.0508 35.8807 82.1388 35.8727L82.2588 35.8607C82.8028 35.7087 83.2188 35.5167 83.5068 35.2847C83.6028 35.2127 83.7188 35.1007 83.8548 34.9487C83.8548 34.9407 83.8588 34.9367 83.8668 34.9367C84.0348 34.7047 84.1428 34.4527 84.1908 34.1807C84.1908 34.1567 84.1948 34.1447 84.2028 34.1447L84.2148 33.9527C84.1828 33.5687 84.1268 33.2927 84.0468 33.1247V33.1007L84.0348 33.0887C83.9308 32.8567 83.8188 32.6647 83.6988 32.5127C83.6988 32.5047 83.6948 32.5007 83.6868 32.5007C83.3508 32.0767 82.9588 31.7767 82.5108 31.6007C82.2068 31.4807 81.9828 31.4207 81.8388 31.4207C81.7428 31.4047 81.5908 31.3967 81.3828 31.3967C81.2868 31.3967 81.1428 31.4247 80.9508 31.4807V31.4927C80.8788 31.5247 80.8188 31.5607 80.7708 31.6007C80.7308 31.6327 80.7028 31.6487 80.6868 31.6487L80.4828 31.8647C80.3628 31.9847 80.2428 32.2927 80.1228 32.7887C80.0988 32.9567 80.0868 33.1367 80.0868 33.3287C80.0868 33.5447 80.1148 33.8047 80.1708 34.1087C80.2908 34.5727 80.4708 34.9607 80.7108 35.2727C81.1028 35.6727 81.4388 35.8727 81.7188 35.8727L81.8148 35.8847ZM89.2875 37.0127C88.6555 37.0127 88.0635 36.8287 87.5115 36.4607C86.7435 35.9327 86.2635 35.2167 86.0715 34.3127C86.0395 34.1207 86.0235 33.9287 86.0235 33.7367C86.0235 33.0247 86.3275 32.3087 86.9355 31.5887C87.5995 30.8367 88.4355 30.4207 89.4435 30.3407C90.4835 30.3407 91.2635 30.7847 91.7835 31.6727C91.8395 31.7687 91.8675 31.8647 91.8675 31.9607C91.8675 32.1847 91.7675 32.3567 91.5675 32.4767C91.4715 32.5247 91.3715 32.5487 91.2675 32.5487C91.0435 32.5487 90.8795 32.4527 90.7755 32.2607L90.6315 32.0447V32.0327L90.3795 31.7807C90.3315 31.7327 90.2435 31.6807 90.1155 31.6247C90.0435 31.5767 89.8475 31.5407 89.5275 31.5167C89.1435 31.5167 88.7195 31.6647 88.2555 31.9607C88.1195 32.0407 87.9515 32.2007 87.7515 32.4407C87.7435 32.4567 87.7315 32.4687 87.7155 32.4767C87.5475 32.6927 87.4315 32.8927 87.3675 33.0767L87.3075 33.2447C87.2435 33.4847 87.2115 33.6367 87.2115 33.7007C87.1955 33.7327 87.1875 33.7927 87.1875 33.8807C87.1875 34.0247 87.2355 34.2287 87.3315 34.4927L87.3435 34.5047C87.4155 34.6727 87.5035 34.8287 87.6075 34.9727L87.6315 34.9847C87.8555 35.2567 88.1635 35.4967 88.5555 35.7047C88.5795 35.7047 88.5955 35.7087 88.6035 35.7167C88.6115 35.7247 88.7715 35.7687 89.0835 35.8487L89.2395 35.8607L89.5875 35.8367L89.8035 35.7647C89.9795 35.6687 90.1475 35.4967 90.3075 35.2487L90.3195 35.2007C90.3515 35.1287 90.3795 35.0487 90.4035 34.9607C90.4435 34.8087 90.5355 34.6927 90.6795 34.6127C90.7675 34.5567 90.8635 34.5287 90.9675 34.5287C91.0155 34.5287 91.0675 34.5367 91.1235 34.5527C91.4035 34.6407 91.5435 34.8327 91.5435 35.1287C91.5115 35.5607 91.3035 35.9767 90.9195 36.3767C90.5115 36.8007 89.9675 37.0127 89.2875 37.0127ZM95.5988 37.0607C95.1268 37.0607 94.6708 36.9367 94.2308 36.6887C93.6388 36.3047 93.2068 35.7807 92.9348 35.1167C92.6948 34.5407 92.5748 33.9487 92.5748 33.3407C92.5748 32.5087 92.7788 31.7967 93.1868 31.2047C93.6588 30.5567 94.3108 30.2327 95.1428 30.2327C95.8228 30.2327 96.4628 30.4007 97.0628 30.7367C97.8548 31.1927 98.4268 31.8367 98.7788 32.6687C98.9548 33.0687 99.0428 33.4687 99.0428 33.8687C99.0428 34.3087 98.9388 34.7527 98.7308 35.2007C98.5068 35.6407 98.1868 36.0087 97.7708 36.3047C97.3628 36.5927 96.9228 36.8007 96.4508 36.9287C96.1628 37.0167 95.8788 37.0607 95.5988 37.0607ZM95.4788 35.8847C95.6068 35.8847 95.7148 35.8807 95.8028 35.8727L95.9228 35.8607C96.4668 35.7087 96.8828 35.5167 97.1708 35.2847C97.2668 35.2127 97.3828 35.1007 97.5188 34.9487C97.5188 34.9407 97.5228 34.9367 97.5308 34.9367C97.6988 34.7047 97.8068 34.4527 97.8548 34.1807C97.8548 34.1567 97.8588 34.1447 97.8668 34.1447L97.8788 33.9527C97.8468 33.5687 97.7908 33.2927 97.7108 33.1247V33.1007L97.6988 33.0887C97.5948 32.8567 97.4828 32.6647 97.3628 32.5127C97.3628 32.5047 97.3588 32.5007 97.3508 32.5007C97.0148 32.0767 96.6228 31.7767 96.1748 31.6007C95.8708 31.4807 95.6468 31.4207 95.5028 31.4207C95.4068 31.4047 95.2548 31.3967 95.0468 31.3967C94.9508 31.3967 94.8068 31.4247 94.6148 31.4807V31.4927C94.5428 31.5247 94.4828 31.5607 94.4348 31.6007C94.3948 31.6327 94.3668 31.6487 94.3508 31.6487L94.1468 31.8647C94.0268 31.9847 93.9068 32.2927 93.7868 32.7887C93.7628 32.9567 93.7508 33.1367 93.7508 33.3287C93.7508 33.5447 93.7788 33.8047 93.8348 34.1087C93.9548 34.5727 94.1348 34.9607 94.3748 35.2727C94.7668 35.6727 95.1028 35.8727 95.3828 35.8727L95.4788 35.8847ZM101.248 32.9927L102.616 32.9687C103.136 32.9527 103.58 32.9047 103.948 32.8247C104.54 32.5687 104.836 32.2327 104.836 31.8167C104.836 31.7127 104.824 31.6287 104.8 31.5647C104.744 31.3327 104.328 31.2167 103.552 31.2167C102.864 31.2167 102.372 31.2207 102.076 31.2287C101.892 31.2367 101.608 31.2407 101.224 31.2407L101.248 32.9927ZM101.656 35.8487C102.32 35.8487 102.828 35.8327 103.18 35.8007C103.716 35.8007 104.164 35.7407 104.524 35.6207C104.78 35.4927 104.92 35.4167 104.944 35.3927C105.072 35.2807 105.144 35.1247 105.16 34.9247C105.16 34.8447 105.128 34.7407 105.064 34.6127C104.992 34.4367 104.64 34.2967 104.008 34.1927C104 34.1927 103.996 34.1887 103.996 34.1807C103.636 34.1407 103.148 34.1207 102.532 34.1207C102.204 34.1367 101.78 34.1447 101.26 34.1447L101.272 35.8487H101.656ZM101.644 37.0007H100.768C100.616 37.0007 100.484 36.9447 100.372 36.8327C100.26 36.7207 100.2 36.5847 100.192 36.4247C100.144 36.3367 100.12 36.2407 100.12 36.1367C100.12 35.2487 100.112 34.3447 100.096 33.4247C100.08 32.4967 100.072 31.5487 100.072 30.5807C100.08 30.4207 100.136 30.2847 100.24 30.1727C100.352 30.0607 100.488 30.0047 100.648 30.0047C100.768 30.0047 100.876 30.0407 100.972 30.1127C101.132 30.0967 101.316 30.0887 101.524 30.0887C101.772 30.0887 101.996 30.0847 102.196 30.0767C102.396 30.0687 102.94 30.0647 103.828 30.0647C104.604 30.0647 105.184 30.2647 105.568 30.6647C105.848 30.9927 105.988 31.3807 105.988 31.8287C105.988 32.4527 105.728 32.9487 105.208 33.3167C105.944 33.6287 106.312 34.1767 106.312 34.9607C106.312 35.1527 106.276 35.3407 106.204 35.5247C106.1 35.8207 105.932 36.0647 105.7 36.2567C105.052 36.7447 104.188 36.9887 103.108 36.9887L102.712 36.9767C102.32 36.9927 101.964 37.0007 101.644 37.0007Z" fill="black"/>
</svg>
