<svg width="20" height="20" viewBox="0 0 20 20" fill="none" xmlns="http://www.w3.org/2000/svg">
<path id="Icon" d="M11.8699 4.57142C12.7459 4.74157 13.551 5.16808 14.1821 5.79637C14.8132 6.42465 15.2416 7.22612 15.4126 8.09821M11.8699 1C13.6899 1.20128 15.3871 2.01265 16.6827 3.3009C17.9784 4.58914 18.7955 6.27768 19 8.08928M8.44122 11.592C7.36357 10.5192 6.51264 9.30611 5.88843 8.0118C5.83474 7.90047 5.80789 7.84481 5.78726 7.77437C5.71397 7.52405 5.76662 7.21668 5.91909 7.00469C5.962 6.94504 6.01326 6.894 6.11578 6.79194C6.42933 6.47979 6.58611 6.32372 6.6886 6.16677C7.07515 5.57491 7.07515 4.81189 6.6886 4.22002C6.58611 4.06308 6.42933 3.90701 6.11578 3.59486L5.94101 3.42087C5.46438 2.94637 5.22607 2.70912 4.97012 2.58024C4.4611 2.32392 3.85996 2.32392 3.35093 2.58024C3.09499 2.70912 2.85667 2.94637 2.38004 3.42087L2.23867 3.56161C1.76367 4.03449 1.52617 4.27093 1.34478 4.59239C1.1435 4.94909 0.998785 5.5031 1.00001 5.91222C1.00111 6.28092 1.07295 6.53291 1.21664 7.03688C1.98881 9.74527 3.44574 12.3009 5.58743 14.4331C7.72911 16.5652 10.2963 18.0156 13.0168 18.7843C13.523 18.9274 13.7761 18.9989 14.1465 19C14.5575 19.0012 15.114 18.8571 15.4723 18.6568C15.7952 18.4762 16.0327 18.2397 16.5077 17.7669L16.649 17.6261C17.1257 17.1516 17.364 16.9144 17.4934 16.6596C17.7509 16.1528 17.7509 15.5544 17.4934 15.0476C17.364 14.7928 17.1257 14.5556 16.649 14.0811L16.4743 13.9071C16.1607 13.5949 16.0039 13.4388 15.8463 13.3368C15.2518 12.952 14.4853 12.952 13.8908 13.3368C13.7332 13.4388 13.5764 13.5949 13.2628 13.9071C13.1603 14.0091 13.1091 14.0602 13.0491 14.1029C12.8362 14.2547 12.5274 14.3071 12.276 14.2341C12.2052 14.2136 12.1493 14.1869 12.0375 14.1334C10.7374 13.512 9.51887 12.6648 8.44122 11.592Z" stroke="#DCDCF0" stroke-linecap="round" stroke-linejoin="round"/>
</svg>
