<svg width="23" height="17" viewBox="0 0 23 17" fill="none" xmlns="http://www.w3.org/2000/svg">
<path id="Icon" d="M2.5 6H1.5C1.08798 6 0.852786 5.52962 1.1 5.2L2.9 2.8C3.27771 2.29639 3.87049 2 4.5 2H10.5M2.5 6H6.5L10.5 2M2.5 6V14C2.5 15.1046 3.39543 16 4.5 16H9.5M20.5 6H16.5L12.5 2M20.5 6H21.5C21.912 6 22.1472 5.52962 21.9 5.2L20.1 2.8C19.7223 2.29639 19.1295 2 18.5 2H12.5M20.5 6V14C20.5 15.1046 19.6046 16 18.5 16H13.5M10.5 2L11.1464 1.35355C11.3417 1.15829 11.6583 1.15829 11.8536 1.35355L12.5 2M9.5 16V11.5C9.5 10.9477 9.94772 10.5 10.5 10.5H12.5C13.0523 10.5 13.5 10.9477 13.5 11.5V16M9.5 16H13.5M7 11V9.5M4.5 11V9.5M7 14.5V13M4.5 14.5V13M18.5 11V9.5M16 11V9.5M18.5 14.5V13M16 14.5V13M13 7C13 7.82843 12.3284 8.5 11.5 8.5C10.6716 8.5 10 7.82843 10 7C10 6.17157 10.6716 5.5 11.5 5.5C12.3284 5.5 13 6.17157 13 7Z" stroke="#DCDCF0" stroke-linecap="round" stroke-linejoin="round"/>
</svg>
