<svg width="21" height="22" viewBox="0 0 21 22" fill="none" xmlns="http://www.w3.org/2000/svg">
<path id="Icon" d="M13.5 8H13.51M7.5 8H7.51M20.5 11C20.5 16.5228 16.0228 21 10.5 21C4.97715 21 0.5 16.5228 0.5 11C0.5 5.47715 4.97715 1 10.5 1C16.0228 1 20.5 5.47715 20.5 11ZM14 8C14 8.27614 13.7761 8.5 13.5 8.5C13.2239 8.5 13 8.27614 13 8C13 7.72386 13.2239 7.5 13.5 7.5C13.7761 7.5 14 7.72386 14 8ZM8 8C8 8.27614 7.77614 8.5 7.5 8.5C7.22386 8.5 7 8.27614 7 8C7 7.72386 7.22386 7.5 7.5 7.5C7.77614 7.5 8 7.72386 8 8ZM10.5 16.5C13.0005 16.5 15 14.667 15 13H6C6 14.667 7.9995 16.5 10.5 16.5Z" stroke="#DCDCF0" stroke-linecap="round" stroke-linejoin="round"/>
</svg>
