<svg width="37" height="36" viewBox="0 0 37 36" fill="none" xmlns="http://www.w3.org/2000/svg">
<g id="&#208;&#152;&#208;&#186;&#208;&#190;&#208;&#189;&#208;&#186;&#208;&#176; &#209;&#130;&#208;&#181;&#208;&#187;&#208;&#181;&#209;&#132;&#208;&#190;&#208;&#189;&#208;&#176; /  3. &#208;&#154;&#209;&#128;&#209;&#131;&#208;&#179;, &#208;&#183;&#208;&#176;&#208;&#187;&#208;&#184;&#208;&#178;&#208;&#186;&#208;&#176;, &#208;&#177;&#208;&#190;&#208;&#187;&#209;&#140;&#209;&#136;&#208;&#176;&#209;&#143;">
<rect id="Rectangle" x="0.5" width="36" height="36" rx="18" fill="#065D89"/>
<path id="Vector" d="M22.9333 19.6334C22.4634 19.1696 21.8769 19.1696 21.41 19.6334C21.0539 19.9865 20.6978 20.3396 20.3477 20.6987C20.2519 20.7975 20.1711 20.8184 20.0544 20.7526C19.824 20.6269 19.5786 20.5252 19.3572 20.3875C18.3247 19.7381 17.4599 18.9032 16.6938 17.9636C16.3137 17.4968 15.9756 16.997 15.7391 16.4344C15.6913 16.3207 15.7002 16.2459 15.793 16.1532C16.1491 15.809 16.4963 15.4559 16.8464 15.1028C17.3342 14.612 17.3342 14.0375 16.8434 13.5437C16.5651 13.2624 16.2868 12.9871 16.0085 12.7058C15.7212 12.4185 15.4369 12.1283 15.1466 11.844C14.6768 11.3861 14.0902 11.3861 13.6234 11.847C13.2643 12.2001 12.9202 12.5622 12.5551 12.9093C12.2169 13.2295 12.0463 13.6215 12.0104 14.0794C11.9536 14.8245 12.1361 15.5277 12.3935 16.213C12.9202 17.6314 13.7222 18.8913 14.6947 20.0464C16.0085 21.6084 17.5766 22.8443 19.411 23.7361C20.237 24.1371 21.0928 24.4453 22.0235 24.4962C22.6639 24.5321 23.2205 24.3705 23.6664 23.8708C23.9717 23.5296 24.3158 23.2184 24.639 22.8922C25.1178 22.4074 25.1208 21.8209 24.645 21.3421C24.0764 20.7705 23.5048 20.202 22.9333 19.6334Z" fill="white"/>
</g>
</svg>
