<svg width="30" height="24" viewBox="0 0 30 24" fill="none" xmlns="http://www.w3.org/2000/svg">
<path id="Icon" fill-rule="evenodd" clip-rule="evenodd" d="M0.639514 12.5174C-0.249558 12.0683 -0.141199 11.513 0.532759 11.1226C4.4704 8.84314 19.6727 2.92171 26.6403 0.350636C27.948 -0.132023 29.2207 -0.145068 29.7416 0.491645C30.0586 0.879263 30.03 1.42808 29.9381 2.13995C29.0882 8.7332 27.9451 15.528 26.7245 22.0684C26.4213 23.6916 24.5332 24.4904 23.2535 23.6801C19.8383 21.5171 16.6431 19.3312 13.6367 17.3788C12.746 16.8005 12.8438 15.4451 14.0962 14.2931C16.9882 11.6329 19.5171 9.6013 21.9538 7.15104C22.2856 6.81747 22.4914 6.3258 22.3129 6.15808C22.1502 6.00496 21.6432 6.14348 21.0962 6.48358C17.6219 8.64499 13.555 11.7264 9.47943 13.9549C8.17781 14.6664 7.00161 14.613 5.80321 14.3353C4.07908 13.9356 2.27907 13.3461 0.639514 12.5174Z" fill="#065D89"/>
</svg>
