<svg width="26" height="26" viewBox="0 0 26 26" fill="none" xmlns="http://www.w3.org/2000/svg">
<g id="Link copy">
<path id="Vector" d="M5.7998 4.5562V2.8C5.7998 2.32261 5.98945 1.86477 6.32701 1.52721C6.66458 1.18964 7.12242 1 7.5998 1L23.1998 1C23.6772 1 24.135 1.18964 24.4726 1.52721C24.8102 1.86477 24.9998 2.32261 24.9998 2.8L24.9998 18.4C24.9998 18.8774 24.8102 19.3352 24.4726 19.6728C24.135 20.0104 23.6772 20.2 23.1998 20.2H21.41" stroke="white"/>
<path id="Vector_2" d="M19.6 4.6001L2.8 4.6001C1.80589 4.6001 1 5.40599 1 6.4001L1 23.2001C1 24.1942 1.80589 25.0001 2.8 25.0001L19.6 25.0001C20.5941 25.0001 21.4 24.1942 21.4 23.2001L21.4 6.4001C21.4 5.40599 20.5941 4.6001 19.6 4.6001Z" stroke="white" stroke-linejoin="round"/>
<path id="Vector_3" d="M9.66396 12.4661L12.8392 9.16006C13.7098 8.28946 15.1414 8.30807 16.036 9.20327C16.9306 10.0979 16.9498 11.5295 16.0792 12.4001L14.9332 13.6139M6.67956 15.8483C6.37356 16.1543 5.74056 16.7663 5.74056 16.7663C4.86936 17.6369 4.84536 19.1891 5.74056 20.0843C6.63456 20.9783 8.06616 20.9981 8.93736 20.1269L12.0358 17.3141" stroke="white" stroke-linecap="round" stroke-linejoin="round"/>
<path id="Vector_4" d="M9.79773 15.5967C9.39917 15.2007 9.15801 14.6734 9.11913 14.1129C9.09615 13.7985 9.14105 13.4828 9.25078 13.1872C9.36052 12.8917 9.53252 12.6232 9.75513 12.3999M11.9925 14.1165C12.8871 15.0111 12.9063 16.4427 12.0357 17.3139" stroke="white" stroke-linecap="round" stroke-linejoin="round"/>
</g>
</svg>
