<svg width="24" height="24" viewBox="0 0 24 24" fill="none" xmlns="http://www.w3.org/2000/svg">
<g id="Share">
<path id="Vector" d="M20 24C18.8889 24 17.9444 23.65 17.1667 22.95C16.3889 22.25 16 21.4 16 20.4C16 20.26 16.0111 20.1148 16.0333 19.9644C16.0556 19.814 16.0889 19.6792 16.1333 19.56L6.73333 14.64C6.35556 14.94 5.93333 15.1752 5.46667 15.3456C5 15.516 4.51111 15.6008 4 15.6C2.88889 15.6 1.94444 15.25 1.16667 14.55C0.388889 13.85 0 13 0 12C0 11 0.388889 10.15 1.16667 9.45C1.94444 8.75 2.88889 8.4 4 8.4C4.51111 8.4 5 8.4852 5.46667 8.6556C5.93333 8.826 6.35556 9.0608 6.73333 9.36L16.1333 4.44C16.0889 4.32 16.0556 4.1852 16.0333 4.0356C16.0111 3.886 16 3.7408 16 3.6C16 2.6 16.3889 1.75 17.1667 1.05C17.9444 0.35 18.8889 0 20 0C21.1111 0 22.0556 0.35 22.8333 1.05C23.6111 1.75 24 2.6 24 3.6C24 4.6 23.6111 5.45 22.8333 6.15C22.0556 6.85 21.1111 7.2 20 7.2C19.4889 7.2 19 7.1152 18.5333 6.9456C18.0667 6.776 17.6444 6.5408 17.2667 6.24L7.86667 11.16C7.91111 11.28 7.94445 11.4152 7.96667 11.5656C7.98889 11.716 8 11.8608 8 12C8 12.14 7.98889 12.2852 7.96667 12.4356C7.94445 12.586 7.91111 12.7208 7.86667 12.84L17.2667 17.76C17.6444 17.46 18.0667 17.2252 18.5333 17.0556C19 16.886 19.4889 16.8008 20 16.8C21.1111 16.8 22.0556 17.15 22.8333 17.85C23.6111 18.55 24 19.4 24 20.4C24 21.4 23.6111 22.25 22.8333 22.95C22.0556 23.65 21.1111 24 20 24Z" fill="white"/>
</g>
</svg>
